{
DisplayStrings = (
"nrhmuijflt\012noaecspboqdg ijfltceuad\012kxzwvy\012IftnHLEFTZH\012EHNMAVvYyWwMHNKkXx\012HNMAVWYZK\012HoOQCcGZH\012DKRPBHE\012SsOJjtr JSC\01201742539C68\0120HOT17ZH4ANM\012SsCc27Z0\012Z5SsCcB308B\01253SsCc906bg",

glyphs = (
{
glyphname = A;
lastChange = "2014-07-11 13:27:22 +0100";
layers = (
{
layerId = "90FEB760-6DE5-46E5-A8E9-582C63BAB3AD";
name = Regular;
paths = (
{
closed = 1;
nodes = (
"302 660 LINE",
"555 0 LINE",
"641 0 LINE",
"383 660 LINE"
);
},
{
closed = 1;
nodes = (
"288 660 LINE",
"29 0 LINE",
"115 0 LINE",
"368 660 LINE"
);
},
{
closed = 1;
nodes = (
"157 258 LINE",
"157 183 LINE",
"510 183 LINE",
"510 258 LINE"
);
}
);
width = 670;
}
);
unicode = 0041;
},
{
glyphname = B;
lastChange = "2014-07-11 13:27:22 +0100";
layers = (
{
layerId = "90FEB760-6DE5-46E5-A8E9-582C63BAB3AD";
leftMetricsKey = I;
name = Regular;
paths = (
{
closed = 1;
nodes = (
"135 350 LINE",
"135 295 LINE",
"348 295 LINE SMOOTH",
"442 295 OFFCURVE",
"488 255 OFFCURVE",
"488 185 CURVE SMOOTH",
"488 115 OFFCURVE",
"442 75 OFFCURVE",
"348 75 CURVE SMOOTH",
"135 75 LINE",
"135 0 LINE",
"367 0 LINE SMOOTH",
"483 0 OFFCURVE",
"572 73 OFFCURVE",
"572 185 CURVE SMOOTH",
"572 285 OFFCURVE",
"483 350 OFFCURVE",
"347 350 CURVE SMOOTH"
);
},
{
closed = 1;
nodes = (
"95 660 LINE",
"95 0 LINE",
"175 0 LINE",
"175 660 LINE"
);
},
{
closed = 1;
nodes = (
"135 660 LINE",
"135 585 LINE",
"331 585 LINE SMOOTH",
"425 585 OFFCURVE",
"471 550 OFFCURVE",
"471 478 CURVE SMOOTH",
"471 405 OFFCURVE",
"425 370 OFFCURVE",
"331 370 CURVE SMOOTH",
"135 370 LINE",
"135 315 LINE",
"330 315 LINE SMOOTH",
"466 315 OFFCURVE",
"555 377 OFFCURVE",
"555 478 CURVE SMOOTH",
"555 590 OFFCURVE",
"466 660 OFFCURVE",
"350 660 CURVE SMOOTH"
);
}
);
width = 621;
}
);
leftMetricsKey = I;
unicode = 0042;
},
{
glyphname = C;
lastChange = "2014-07-11 13:27:22 +0100";
layers = (
{
layerId = "90FEB760-6DE5-46E5-A8E9-582C63BAB3AD";
leftMetricsKey = O;
name = Regular;
paths = (
{
closed = 1;
nodes = (
"168 670 OFFCURVE",
"48 539 OFFCURVE",
"48 330 CURVE SMOOTH",
"48 121 OFFCURVE",
"166 -10 OFFCURVE",
"354 -10 CURVE SMOOTH",
"478 -10 OFFCURVE",
"578 56 OFFCURVE",
"620 169 CURVE",
"540 199 LINE",
"511 110 OFFCURVE",
"442 65 OFFCURVE",
"354 65 CURVE SMOOTH",
"217 65 OFFCURVE",
"132 164 OFFCURVE",
"132 330 CURVE SMOOTH",
"132 497 OFFCURVE",
"223 595 OFFCURVE",
"358 595 CURVE SMOOTH",
"446 595 OFFCURVE",
"500 555 OFFCURVE",
"529 479 CURVE",
"608 516 LINE",
"566 616 OFFCURVE",
"480 670 OFFCURVE",
"352 670 CURVE SMOOTH"
);
}
);
width = 639;
}
);
leftMetricsKey = O;
unicode = 0043;
},
{
glyphname = D;
lastChange = "2014-07-11 13:27:22 +0100";
layers = (
{
layerId = "90FEB760-6DE5-46E5-A8E9-582C63BAB3AD";
leftMetricsKey = I;
rightMetricsKey = O;
name = Regular;
paths = (
{
closed = 1;
nodes = (
"135 660 LINE",
"135 585 LINE",
"316 585 LINE SMOOTH",
"467 585 OFFCURVE",
"556 490 OFFCURVE",
"556 330 CURVE SMOOTH",
"556 170 OFFCURVE",
"467 75 OFFCURVE",
"316 75 CURVE SMOOTH",
"135 75 LINE",
"135 0 LINE",
"308 0 LINE SMOOTH",
"515 0 OFFCURVE",
"640 118 OFFCURVE",
"640 330 CURVE SMOOTH",
"640 542 OFFCURVE",
"515 660 OFFCURVE",
"308 660 CURVE SMOOTH"
);
},
{
closed = 1;
nodes = (
"95 660 LINE",
"95 0 LINE",
"175 0 LINE",
"175 660 LINE"
);
}
);
width = 688;
}
);
leftMetricsKey = I;
rightMetricsKey = O;
unicode = 0044;
},
{
glyphname = E;
lastChange = "2014-07-11 13:27:22 +0100";
layers = (
{
layerId = "90FEB760-6DE5-46E5-A8E9-582C63BAB3AD";
leftMetricsKey = I;
name = Regular;
paths = (
{
closed = 1;
nodes = (
"95 660 LINE",
"95 0 LINE",
"175 0 LINE",
"175 660 LINE"
);
},
{
closed = 1;
nodes = (
"137 75 LINE",
"137 0 LINE",
"573 0 LINE",
"573 75 LINE"
);
},
{
closed = 1;
nodes = (
"137 372 LINE",
"137 297 LINE",
"473 297 LINE",
"473 372 LINE"
);
},
{
closed = 1;
nodes = (
"137 660 LINE",
"137 585 LINE",
"558 585 LINE",
"558 660 LINE"
);
}
);
width = 625;
}
);
leftMetricsKey = I;
unicode = 0045;
},
{
glyphname = F;
lastChange = "2014-07-11 13:27:22 +0100";
layers = (
{
layerId = "90FEB760-6DE5-46E5-A8E9-582C63BAB3AD";
leftMetricsKey = E;
name = Regular;
paths = (
{
closed = 1;
nodes = (
"95 660 LINE",
"95 0 LINE",
"175 0 LINE",
"175 660 LINE"
);
},
{
closed = 1;
nodes = (
"137 372 LINE",
"137 297 LINE",
"473 297 LINE",
"473 372 LINE"
);
},
{
closed = 1;
nodes = (
"137 660 LINE",
"137 585 LINE",
"557 585 LINE",
"557 660 LINE"
);
}
);
width = 595;
}
);
leftMetricsKey = E;
unicode = 0046;
},
{
glyphname = G;
lastChange = "2014-07-11 13:27:22 +0100";
layers = (
{
layerId = "90FEB760-6DE5-46E5-A8E9-582C63BAB3AD";
leftMetricsKey = O;
name = Regular;
paths = (
{
closed = 1;
nodes = (
"166 670 OFFCURVE",
"48 539 OFFCURVE",
"48 330 CURVE SMOOTH",
"48 121 OFFCURVE",
"166 -10 OFFCURVE",
"354 -10 CURVE SMOOTH",
"501 -10 OFFCURVE",
"569 66 OFFCURVE",
"596 175 CURVE",
"560 186 LINE",
"528 111 OFFCURVE",
"464 65 OFFCURVE",
"354 65 CURVE SMOOTH",
"207 65 OFFCURVE",
"132 164 OFFCURVE",
"132 330 CURVE SMOOTH",
"132 496 OFFCURVE",
"217 595 OFFCURVE",
"351 595 CURVE SMOOTH",
"443 595 OFFCURVE",
"502 553 OFFCURVE",
"533 478 CURVE",
"610 519 LINE",
"565 617 OFFCURVE",
"474 670 OFFCURVE",
"351 670 CURVE SMOOTH"
);
},
{
closed = 1;
nodes = (
"549 333 LINE",
"549 100 LINE",
"572 0 LINE",
"625 0 LINE",
"625 98 LINE",
"625 333 LINE"
);
},
{
closed = 1;
nodes = (
"342 333 LINE",
"342 258 LINE",
"625 258 LINE",
"625 333 LINE"
);
}
);
width = 704;
}
);
leftMetricsKey = O;
unicode = 0047;
},
{
glyphname = H;
lastChange = "2014-07-11 13:27:22 +0100";
layers = (
{
layerId = "90FEB760-6DE5-46E5-A8E9-582C63BAB3AD";
leftMetricsKey = I;
rightMetricsKey = I;
name = Regular;
paths = (
{
closed = 1;
nodes = (
"533 660 LINE",
"533 0 LINE",
"613 0 LINE",
"613 660 LINE"
);
},
{
closed = 1;
nodes = (
"95 660 LINE",
"95 0 LINE",
"175 0 LINE",
"175 660 LINE"
);
},
{
closed = 1;
nodes = (
"137 372 LINE",
"137 297 LINE",
"570 297 LINE",
"570 372 LINE"
);
}
);
width = 708;
}
);
leftMetricsKey = I;
rightMetricsKey = I;
unicode = 0048;
},
{
glyphname = I;
lastChange = "2014-07-11 13:27:22 +0100";
layers = (
{
layerId = "90FEB760-6DE5-46E5-A8E9-582C63BAB3AD";
name = Regular;
paths = (
{
closed = 1;
nodes = (
"95 660 LINE",
"95 0 LINE",
"175 0 LINE",
"175 660 LINE"
);
}
);
width = 270;
}
);
unicode = 0049;
},
{
glyphname = J;
lastChange = "2014-07-11 13:27:22 +0100";
layers = (
{
layerId = "90FEB760-6DE5-46E5-A8E9-582C63BAB3AD";
rightMetricsKey = U;
name = Regular;
paths = (
{
closed = 1;
nodes = (
"388 660 LINE",
"388 246 LINE SMOOTH",
"388 128 OFFCURVE",
"354 65 OFFCURVE",
"241 65 CURVE SMOOTH",
"157 65 OFFCURVE",
"104 129 OFFCURVE",
"123 232 CURVE",
"43 218 LINE",
"21 77 OFFCURVE",
"97 -10 OFFCURVE",
"244 -10 CURVE SMOOTH",
"409 -10 OFFCURVE",
"467 83 OFFCURVE",
"467 226 CURVE SMOOTH",
"468 660 LINE"
);
}
);
width = 549;
}
);
rightMetricsKey = U;
unicode = 004A;
},
{
glyphname = K;
lastChange = "2014-07-11 13:27:22 +0100";
layers = (
{
layerId = "90FEB760-6DE5-46E5-A8E9-582C63BAB3AD";
leftMetricsKey = I;
name = Regular;
paths = (
{
closed = 1;
nodes = (
"507 660 LINE",
"135 279 LINE",
"135 171 LINE",
"612 660 LINE"
);
},
{
closed = 1;
nodes = (
"95 660 LINE",
"95 0 LINE",
"175 0 LINE",
"175 660 LINE"
);
},
{
closed = 1;
nodes = (
"266 371 LINE",
"519 0 LINE",
"615 0 LINE",
"332 416 LINE"
);
}
);
width = 653;
}
);
leftMetricsKey = I;
unicode = 004B;
},
{
glyphname = L;
lastChange = "2014-07-11 13:27:22 +0100";
layers = (
{
layerId = "90FEB760-6DE5-46E5-A8E9-582C63BAB3AD";
leftMetricsKey = I;
rightMetricsKey = "=E-30";
name = Regular;
paths = (
{
closed = 1;
nodes = (
"95 660 LINE",
"95 0 LINE",
"175 0 LINE",
"175 660 LINE"
);
},
{
closed = 1;
nodes = (
"137 75 LINE",
"137 0 LINE",
"553 0 LINE",
"553 75 LINE"
);
}
);
width = 575;
}
);
leftMetricsKey = I;
rightMetricsKey = E;
unicode = 004C;
},
{
glyphname = M;
lastChange = "2014-07-11 13:27:22 +0100";
layers = (
{
layerId = "90FEB760-6DE5-46E5-A8E9-582C63BAB3AD";
leftMetricsKey = I;
rightMetricsKey = I;
name = Regular;
paths = (
{
closed = 1;
nodes = (
"614 660 LINE",
"373 0 LINE",
"455 0 LINE",
"695 660 LINE"
);
},
{
closed = 1;
nodes = (
"95 660 LINE",
"95 415 LINE",
"95 0 LINE",
"175 0 LINE",
"175 415 LINE",
"160 660 LINE"
);
},
{
closed = 1;
nodes = (
"134 660 LINE",
"373 0 LINE",
"455 0 LINE",
"215 660 LINE"
);
},
{
closed = 1;
nodes = (
"668 660 LINE",
"653 415 LINE",
"653 0 LINE",
"733 0 LINE",
"733 415 LINE",
"733 660 LINE"
);
}
);
width = 828;
}
);
leftMetricsKey = i;
rightMetricsKey = l;
unicode = 004D;
},
{
glyphname = N;
lastChange = "2014-07-11 13:27:22 +0100";
layers = (
{
layerId = "90FEB760-6DE5-46E5-A8E9-582C63BAB3AD";
leftMetricsKey = I;
rightMetricsKey = I;
name = Regular;
paths = (
{
closed = 1;
nodes = (
"100 660 LINE",
"518 0 LINE",
"608 0 LINE",
"190 660 LINE"
);
},
{
closed = 1;
nodes = (
"95 660 LINE",
"95 466 LINE",
"95 0 LINE",
"175 0 LINE",
"175 466 LINE",
"165 660 LINE"
);
},
{
closed = 1;
nodes = (
"533 660 LINE",
"533 194 LINE",
"543 0 LINE",
"613 0 LINE",
"613 194 LINE",
"613 660 LINE"
);
}
);
width = 708;
}
);
leftMetricsKey = I;
rightMetricsKey = I;
unicode = 004E;
},
{
glyphname = O;
lastChange = "2014-07-11 13:27:22 +0100";
layers = (
{
layerId = "90FEB760-6DE5-46E5-A8E9-582C63BAB3AD";
name = Regular;
paths = (
{
closed = 1;
nodes = (
"166 670 OFFCURVE",
"48 539 OFFCURVE",
"48 330 CURVE SMOOTH",
"48 121 OFFCURVE",
"166 -10 OFFCURVE",
"354 -10 CURVE SMOOTH",
"542 -10 OFFCURVE",
"660 121 OFFCURVE",
"660 330 CURVE SMOOTH",
"660 539 OFFCURVE",
"542 670 OFFCURVE",
"354 670 CURVE SMOOTH"
);
},
{
closed = 1;
nodes = (
"491 595 OFFCURVE",
"576 496 OFFCURVE",
"576 330 CURVE SMOOTH",
"576 164 OFFCURVE",
"491 65 OFFCURVE",
"354 65 CURVE SMOOTH",
"217 65 OFFCURVE",
"132 164 OFFCURVE",
"132 330 CURVE SMOOTH",
"132 496 OFFCURVE",
"217 595 OFFCURVE",
"354 595 CURVE SMOOTH"
);
}
);
width = 708;
}
);
unicode = 004F;
},
{
glyphname = P;
lastChange = "2014-07-11 13:27:22 +0100";
layers = (
{
layerId = "90FEB760-6DE5-46E5-A8E9-582C63BAB3AD";
leftMetricsKey = I;
name = Regular;
paths = (
{
closed = 1;
nodes = (
"135 660 LINE",
"135 585 LINE",
"316 585 LINE SMOOTH",
"420 585 OFFCURVE",
"466 541 OFFCURVE",
"466 459 CURVE SMOOTH",
"466 377 OFFCURVE",
"420 333 OFFCURVE",
"316 333 CURVE SMOOTH",
"135 333 LINE",
"135 258 LINE",
"328 258 LINE SMOOTH",
"461 258 OFFCURVE",
"550 335 OFFCURVE",
"550 459 CURVE SMOOTH",
"550 583 OFFCURVE",
"461 660 OFFCURVE",
"328 660 CURVE SMOOTH"
);
},
{
closed = 1;
nodes = (
"95 660 LINE",
"95 0 LINE",
"175 0 LINE",
"175 660 LINE"
);
}
);
width = 584;
}
);
leftMetricsKey = I;
unicode = 0050;
},
{
glyphname = Q;
lastChange = "2014-07-11 13:27:22 +0100";
layers = (
{
components = (
{
name = O;
transform = "{1, 0, 0, 1, 0, 0}";
}
);
layerId = "90FEB760-6DE5-46E5-A8E9-582C63BAB3AD";
leftMetricsKey = O;
rightMetricsKey = O;
name = Regular;
paths = (
{
closed = 1;
nodes = (
"336 20 LINE",
"334 -145 OFFCURVE",
"421 -193 OFFCURVE",
"534 -195 CURVE SMOOTH",
"584 -196 OFFCURVE",
"631 -182 OFFCURVE",
"661 -168 CURVE",
"661 -92 LINE",
"629 -113 OFFCURVE",
"597 -122 OFFCURVE",
"539 -122 CURVE SMOOTH",
"466 -122 OFFCURVE",
"400 -92 OFFCURVE",
"407 38 CURVE"
);
}
);
width = 709;
}
);
leftMetricsKey = O;
rightMetricsKey = o;
unicode = 0051;
},
{
glyphname = R;
lastChange = "2014-07-11 13:27:22 +0100";
layers = (
{
layerId = "90FEB760-6DE5-46E5-A8E9-582C63BAB3AD";
leftMetricsKey = I;
name = Regular;
paths = (
{
closed = 1;
nodes = (
"135 660 LINE",
"135 585 LINE",
"344 585 LINE SMOOTH",
"438 585 OFFCURVE",
"484 546 OFFCURVE",
"484 467 CURVE SMOOTH",
"484 388 OFFCURVE",
"438 349 OFFCURVE",
"344 349 CURVE SMOOTH",
"135 349 LINE",
"135 274 LINE",
"345 274 LINE SMOOTH",
"479 274 OFFCURVE",
"568 348 OFFCURVE",
"568 467 CURVE SMOOTH",
"568 586 OFFCURVE",
"479 660 OFFCURVE",
"345 660 CURVE SMOOTH"
);
},
{
closed = 1;
nodes = (
"95 660 LINE",
"95 0 LINE",
"175 0 LINE",
"175 660 LINE"
);
},
{
closed = 1;
nodes = (
"323 289 LINE",
"513 0 LINE",
"608 0 LINE",
"390 333 LINE"
);
}
);
width = 626;
}
);
leftMetricsKey = I;
unicode = 0052;
},
{
glyphname = S;
lastChange = "2014-07-11 13:27:22 +0100";
layers = (
{
layerId = "90FEB760-6DE5-46E5-A8E9-582C63BAB3AD";
name = Regular;
paths = (
{
closed = 1;
nodes = (
"139 670 OFFCURVE",
"46 580 OFFCURVE",
"46 474 CURVE SMOOTH",
"46 370 OFFCURVE",
"115 321 OFFCURVE",
"268 293 CURVE SMOOTH",
"441 260 OFFCURVE",
"470 230 OFFCURVE",
"470 171 CURVE SMOOTH",
"470 103 OFFCURVE",
"402 65 OFFCURVE",
"300 65 CURVE SMOOTH",
"205 65 OFFCURVE",
"114 123 OFFCURVE",
"101 203 CURVE",
"20 161 LINE",
"59 50 OFFCURVE",
"158 -10 OFFCURVE",
"298 -10 CURVE SMOOTH",
"452 -10 OFFCURVE",
"553 65 OFFCURVE",
"553 178 CURVE SMOOTH",
"553 282 OFFCURVE",
"489 333 OFFCURVE",
"324 363 CURVE SMOOTH",
"167 392 OFFCURVE",
"130 423 OFFCURVE",
"130 483 CURVE SMOOTH",
"130 546 OFFCURVE",
"188 595 OFFCURVE",
"293 595 CURVE SMOOTH",
"390 595 OFFCURVE",
"437 560 OFFCURVE",
"477 473 CURVE",
"547 530 LINE",
"493 625 OFFCURVE",
"423 670 OFFCURVE",
"292 670 CURVE SMOOTH"
);
}
);
width = 588;
}
);
unicode = 0053;
},
{
glyphname = T;
lastChange = "2014-07-11 13:27:22 +0100";
layers = (
{
layerId = "90FEB760-6DE5-46E5-A8E9-582C63BAB3AD";
name = Regular;
paths = (
{
closed = 1;
nodes = (
"273 660 LINE",
"273 0 LINE",
"353 0 LINE",
"353 660 LINE"
);
},
{
closed = 1;
nodes = (
"42 660 LINE",
"42 585 LINE",
"583 585 LINE",
"583 660 LINE"
);
}
);
width = 625;
}
);
unicode = 0054;
},
{
glyphname = U;
lastChange = "2014-07-11 13:27:22 +0100";
layers = (
{
layerId = "90FEB760-6DE5-46E5-A8E9-582C63BAB3AD";
name = Regular;
paths = (
{
closed = 1;
nodes = (
"525 660 LINE",
"525 266 LINE SMOOTH",
"525 128 OFFCURVE",
"469 65 OFFCURVE",
"346 65 CURVE SMOOTH",
"223 65 OFFCURVE",
"167 128 OFFCURVE",
"167 266 CURVE SMOOTH",
"167 660 LINE",
"87 660 LINE",
"87 246 LINE SMOOTH",
"87 76 OFFCURVE",
"180 -10 OFFCURVE",
"346 -10 CURVE SMOOTH",
"513 -10 OFFCURVE",
"605 76 OFFCURVE",
"605 246 CURVE SMOOTH",
"605 660 LINE"
);
}
);
width = 692;
}
);
unicode = 0055;
},
{
glyphname = V;
lastChange = "2014-07-11 13:27:22 +0100";
layers = (
{
layerId = "90FEB760-6DE5-46E5-A8E9-582C63BAB3AD";
name = Regular;
paths = (
{
closed = 1;
nodes = (
"542 660 LINE",
"299 0 LINE",
"380 0 LINE",
"628 660 LINE"
);
},
{
closed = 1;
nodes = (
"36 660 LINE",
"285 0 LINE",
"365 0 LINE",
"122 660 LINE"
);
}
);
width = 664;
}
);
unicode = 0056;
},
{
glyphname = W;
lastChange = "2014-07-11 13:27:22 +0100";
layers = (
{
layerId = "90FEB760-6DE5-46E5-A8E9-582C63BAB3AD";
name = Regular;
paths = (
{
closed = 1;
nodes = (
"39 660 LINE",
"234 0 LINE",
"308 0 LINE",
"125 660 LINE"
);
},
{
closed = 1;
nodes = (
"440 660 LINE",
"262 0 LINE",
"333 0 LINE",
"512 660 LINE"
);
},
{
closed = 1;
nodes = (
"456 660 LINE",
"636 0 LINE",
"710 0 LINE",
"532 660 LINE"
);
},
{
closed = 1;
nodes = (
"848 660 LINE",
"665 0 LINE",
"735 0 LINE",
"929 660 LINE"
);
}
);
width = 968;
}
);
unicode = 0057;
},
{
glyphname = X;
lastChange = "2014-07-11 13:27:22 +0100";
layers = (
{
layerId = "90FEB760-6DE5-46E5-A8E9-582C63BAB3AD";
name = Regular;
paths = (
{
closed = 1;
nodes = (
"466 660 LINE",
"279 375 LINE",
"272 375 LINE",
"14 0 LINE",
"107 0 LINE",
"309 308 LINE",
"316 308 LINE",
"551 660 LINE"
);
},
{
closed = 1;
nodes = (
"34 660 LINE",
"465 0 LINE",
"558 0 LINE",
"129 660 LINE"
);
}
);
width = 571;
}
);
unicode = 0058;
},
{
glyphname = Y;
lastChange = "2014-07-11 13:27:22 +0100";
layers = (
{
layerId = "90FEB760-6DE5-46E5-A8E9-582C63BAB3AD";
name = Regular;
paths = (
{
closed = 1;
nodes = (
"483 660 LINE",
"276 294 LINE",
"342 258 LINE",
"578 660 LINE"
);
},
{
closed = 1;
nodes = (
"276 294 LINE",
"262 258 LINE",
"262 0 LINE",
"342 0 LINE",
"342 258 LINE",
"328 294 LINE"
);
},
{
closed = 1;
nodes = (
"26 660 LINE",
"262 258 LINE",
"328 294 LINE",
"121 660 LINE"
);
}
);
width = 604;
}
);
unicode = 0059;
},
{
glyphname = Z;
lastChange = "2014-07-11 13:27:22 +0100";
layers = (
{
layerId = "90FEB760-6DE5-46E5-A8E9-582C63BAB3AD";
name = Regular;
paths = (
{
closed = 1;
nodes = (
"46 75 LINE",
"110 25 LINE",
"552 585 LINE",
"489 636 LINE"
);
},
{
closed = 1;
nodes = (
"46 75 LINE",
"46 0 LINE",
"565 0 LINE",
"565 75 LINE"
);
},
{
closed = 1;
nodes = (
"56 660 LINE",
"56 585 LINE",
"552 585 LINE",
"552 660 LINE"
);
}
);
width = 591;
}
);
unicode = 005A;
},
{
glyphname = a;
lastChange = "2014-07-11 13:27:22 +0100";
layers = (
{
anchors = (
{
name = ogonek;
position = "{506, 10}";
},
{
name = top;
position = "{268, 500}";
}
);
layerId = "90FEB760-6DE5-46E5-A8E9-582C63BAB3AD";
name = Regular;
paths = (
{
closed = 1;
nodes = (
"163 510 OFFCURVE",
"84 462 OFFCURVE",
"58 388 CURVE",
"120 344 LINE",
"147 407 OFFCURVE",
"192 440 OFFCURVE",
"258 440 CURVE SMOOTH",
"333 440 OFFCURVE",
"377 396 OFFCURVE",
"377 330 CURVE SMOOTH",
"377 102 LINE SMOOTH",
"377 16 OFFCURVE",
"411 -10 OFFCURVE",
"470 -10 CURVE SMOOTH",
"495 -10 OFFCURVE",
"516 -5 OFFCURVE",
"530 0 CURVE",
"535 63 LINE",
"523 60 OFFCURVE",
"508 58 OFFCURVE",
"495 58 CURVE SMOOTH",
"467 58 OFFCURVE",
"457 70 OFFCURVE",
"457 94 CURVE SMOOTH",
"457 340 LINE SMOOTH",
"457 456 OFFCURVE",
"368 510 OFFCURVE",
"254 510 CURVE SMOOTH"
);
},
{
closed = 1;
nodes = (
"252 283 LINE SMOOTH",
"119 257 OFFCURVE",
"49 199 OFFCURVE",
"49 124 CURVE SMOOTH",
"49 24 OFFCURVE",
"117 -10 OFFCURVE",
"225 -10 CURVE SMOOTH",
"306 -10 OFFCURVE",
"399 41 OFFCURVE",
"399 124 CURVE",
"377 149 LINE",
"377 102 OFFCURVE",
"303 60 OFFCURVE",
"223 60 CURVE SMOOTH",
"168 60 OFFCURVE",
"132 83 OFFCURVE",
"132 124 CURVE SMOOTH",
"132 171 OFFCURVE",
"185 200 OFFCURVE",
"273 219 CURVE SMOOTH",
"423 251 LINE",
"412 316 LINE"
);
}
);
width = 562;
}
);
unicode = 0061;
},
{
glyphname = ae;
lastChange = "2014-07-11 13:27:22 +0100";
layers = (
{
anchors = (
{
name = ogonek;
position = "{1083, 10}";
}
);
layerId = "90FEB760-6DE5-46E5-A8E9-582C63BAB3AD";
leftMetricsKey = a;
rightMetricsKey = e;
name = Regular;
paths = (
{
closed = 1;
nodes = (
"456 510 OFFCURVE",
"382 396 OFFCURVE",
"382 250 CURVE SMOOTH",
"382 88 OFFCURVE",
"460 -10 OFFCURVE",
"603 -10 CURVE SMOOTH",
"711 -10 OFFCURVE",
"768 31 OFFCURVE",
"804 99 CURVE",
"737 134 LINE",
"720 86 OFFCURVE",
"683 60 OFFCURVE",
"608 60 CURVE SMOOTH",
"514 60 OFFCURVE",
"457 131 OFFCURVE",
"457 250 CURVE SMOOTH",
"457 369 OFFCURVE",
"517 440 OFFCURVE",
"601 440 CURVE SMOOTH",
"691 440 OFFCURVE",
"743 368 OFFCURVE",
"740 255 CURVE SMOOTH",
"739 220 LINE",
"816 220 LINE",
"816 255 LINE SMOOTH",
"816 412 OFFCURVE",
"743 510 OFFCURVE",
"602 510 CURVE SMOOTH"
);
},
{
closed = 1;
nodes = (
"352 287 LINE SMOOTH",
"167 275 OFFCURVE",
"49 240 OFFCURVE",
"49 124 CURVE SMOOTH",
"49 24 OFFCURVE",
"117 -10 OFFCURVE",
"225 -10 CURVE SMOOTH",
"328 -10 OFFCURVE",
"429 48 OFFCURVE",
"441 144 CURVE",
"405 210 LINE",
"388 91 OFFCURVE",
"298 60 OFFCURVE",
"223 60 CURVE SMOOTH",
"168 60 OFFCURVE",
"132 83 OFFCURVE",
"132 124 CURVE SMOOTH",
"132 167 OFFCURVE",
"161 198 OFFCURVE",
"361 217 CURVE SMOOTH",
"423 223 LINE",
"412 291 LINE"
);
},
{
closed = 1;
nodes = (
"164 510 OFFCURVE",
"87 465 OFFCURVE",
"58 388 CURVE",
"120 344 LINE",
"147 407 OFFCURVE",
"192 440 OFFCURVE",
"258 440 CURVE SMOOTH",
"333 440 OFFCURVE",
"377 396 OFFCURVE",
"377 330 CURVE SMOOTH",
"377 264 LINE",
"457 264 LINE",
"457 320 LINE SMOOTH",
"457 435 OFFCURVE",
"380 510 OFFCURVE",
"260 510 CURVE SMOOTH"
);
},
{
closed = 1;
nodes = (
"422 291 LINE",
"422 220 LINE",
"779 220 LINE",
"779 291 LINE"
);
}
);
width = 881;
}
);
leftMetricsKey = a;
rightMetricsKey = e;
unicode = 00E6;
},
{
glyphname = b;
lastChange = "2014-07-11 13:27:22 +0100";
layers = (
{
components = (
{
name = bowl;
transform = "{-1, 0, 0, 1, 649, 0}";
}
);
layerId = "90FEB760-6DE5-46E5-A8E9-582C63BAB3AD";
leftMetricsKey = n;
rightMetricsKey = o;
name = Regular;
paths = (
{
closed = 1;
nodes = (
"95 730 LINE",
"95 117 LINE",
"95 0 LINE",
"160 0 LINE",
"175 127 LINE",
"175 730 LINE"
);
}
);
width = 619;
}
);
leftMetricsKey = n;
rightMetricsKey = o;
unicode = 0062;
},
{
glyphname = c;
lastChange = "2014-07-11 13:27:22 +0100";
layers = (
{
anchors = (
{
name = bottom;
position = "{300, 0}";
},
{
name = top;
position = "{300, 500}";
}
);
layerId = "90FEB760-6DE5-46E5-A8E9-582C63BAB3AD";
leftMetricsKey = o;
name = Regular;
paths = (
{
closed = 1;
nodes = (
"149 510 OFFCURVE",
"58 412 OFFCURVE",
"58 250 CURVE SMOOTH",
"58 88 OFFCURVE",
"149 -10 OFFCURVE",
"300 -10 CURVE SMOOTH",
"406 -10 OFFCURVE",
"478 46 OFFCURVE",
"510 138 CURVE",
"438 163 LINE",
"418 97 OFFCURVE",
"371 60 OFFCURVE",
"298 60 CURVE SMOOTH",
"198 60 OFFCURVE",
"138 131 OFFCURVE",
"138 250 CURVE SMOOTH",
"138 369 OFFCURVE",
"198 440 OFFCURVE",
"298 440 CURVE SMOOTH",
"363 440 OFFCURVE",
"408 404 OFFCURVE",
"429 341 CURVE",
"505 377 LINE",
"470 459 OFFCURVE",
"403 510 OFFCURVE",
"300 510 CURVE SMOOTH"
);
}
);
width = 543;
}
);
leftMetricsKey = o;
unicode = 0063;
},
{
glyphname = d;
lastChange = "2014-07-11 13:27:22 +0100";
layers = (
{
anchors = (
{
name = center;
position = "{310, 250}";
},
{
name = topright;
position = "{599, 500}";
}
);
components = (
{
name = bowl;
transform = "{1, 0, 0, 1, -30, 0}";
}
);
layerId = "90FEB760-6DE5-46E5-A8E9-582C63BAB3AD";
leftMetricsKey = o;
rightMetricsKey = "=|n";
name = Regular;
paths = (
{
closed = 1;
nodes = (
"444 730 LINE",
"444 127 LINE",
"459 0 LINE",
"524 0 LINE",
"524 117 LINE",
"524 730 LINE"
);
}
);
width = 619;
}
);
leftMetricsKey = q;
rightMetricsKey = "|n";
unicode = 0064;
},
{
color = 0;
glyphname = eth;
lastChange = "2014-07-11 13:27:22 +0100";
layers = (
{
layerId = "90FEB760-6DE5-46E5-A8E9-582C63BAB3AD";
name = Regular;
paths = (
{
closed = 1;
nodes = (
"159 485 OFFCURVE",
"58 392 OFFCURVE",
"58 238 CURVE SMOOTH",
"58 83 OFFCURVE",
"149 -10 OFFCURVE",
"303 -10 CURVE SMOOTH",
"457 -10 OFFCURVE",
"548 83 OFFCURVE",
"548 238 CURVE",
"465 238 LINE",
"465 126 OFFCURVE",
"404 60 OFFCURVE",
"303 60 CURVE SMOOTH",
"202 60 OFFCURVE",
"141 126 OFFCURVE",
"141 238 CURVE SMOOTH",
"141 348 OFFCURVE",
"202 415 OFFCURVE",
"303 415 CURVE SMOOTH",
"404 415 OFFCURVE",
"465 348 OFFCURVE",
"465 238 CURVE SMOOTH",
"465 238 OFFCURVE",
"465 238 OFFCURVE",
"465 238 CURVE",
"508 238 LINE",
"508 392 OFFCURVE",
"443 485 OFFCURVE",
"292 485 CURVE SMOOTH"
);
},
{
closed = 1;
nodes = (
"167 735 LINE",
"134 672 LINE",
"155 672 LINE SMOOTH",
"304 672 OFFCURVE",
"465 574 OFFCURVE",
"465 238 CURVE",
"548 238 LINE",
"548 523 OFFCURVE",
"417 735 OFFCURVE",
"186 735 CURVE SMOOTH"
);
},
{
closed = 1;
nodes = (
"182 588 LINE",
"205 531 LINE",
"528 669 LINE",
"504 728 LINE"
);
}
);
width = 606;
}
);
unicode = 00F0;
},
{
glyphname = e;
lastChange = "2014-07-11 13:27:22 +0100";
layers = (
{
anchors = (
{
name = bottom;
position = "{300, 0}";
},
{
name = ogonek;
position = "{521, 10}";
},
{
name = top;
position = "{291, 500}";
}
);
layerId = "90FEB760-6DE5-46E5-A8E9-582C63BAB3AD";
leftMetricsKey = o;
name = Regular;
paths = (
{
closed = 1;
nodes = (
"143 510 OFFCURVE",
"58 412 OFFCURVE",
"58 250 CURVE SMOOTH",
"58 88 OFFCURVE",
"149 -10 OFFCURVE",
"300 -10 CURVE SMOOTH",
"408 -10 OFFCURVE",
"470 31 OFFCURVE",
"508 99 CURVE",
"441 134 LINE",
"423 86 OFFCURVE",
"373 60 OFFCURVE",
"300 60 CURVE SMOOTH",
"199 60 OFFCURVE",
"136 131 OFFCURVE",
"136 250 CURVE SMOOTH",
"136 369 OFFCURVE",
"193 440 OFFCURVE",
"294 440 CURVE SMOOTH",
"389 440 OFFCURVE",
"447 368 OFFCURVE",
"443 255 CURVE SMOOTH",
"442 220 LINE",
"519 220 LINE",
"519 255 LINE SMOOTH",
"519 412 OFFCURVE",
"439 510 OFFCURVE",
"294 510 CURVE SMOOTH"
);
},
{
closed = 1;
nodes = (
"110 291 LINE",
"110 220 LINE",
"482 220 LINE",
"482 291 LINE"
);
}
);
width = 579;
}
);
leftMetricsKey = o;
unicode = 0065;
},
{
glyphname = f;
lastChange = "2014-07-11 13:27:22 +0100";
layers = (
{
guideLines = (
{
angle = 90;
position = "{394, 500}";
}
);
hints = (
{
place = "{257.299790, 0.000000}";
}
);
layerId = "90FEB760-6DE5-46E5-A8E9-582C63BAB3AD";
name = Regular;
paths = (
{
closed = 1;
nodes = (
"205 735 OFFCURVE",
"148 673 OFFCURVE",
"148 584 CURVE SMOOTH",
"148 0 LINE",
"228 0 LINE",
"228 576 LINE SMOOTH",
"228 637 OFFCURVE",
"264 662 OFFCURVE",
"305 662 CURVE SMOOTH",
"339 662 OFFCURVE",
"358 649 OFFCURVE",
"375 629 CURVE",
"394 702 LINE",
"374 722 OFFCURVE",
"352 735 OFFCURVE",
"298 735 CURVE SMOOTH"
);
},
{
closed = 1;
nodes = (
"48 500 LINE",
"48 431 LINE",
"388 431 LINE",
"388 500 LINE"
);
}
);
width = 424;
}
);
unicode = 0066;
},
{
glyphname = g;
lastChange = "2014-07-11 13:27:22 +0100";
layers = (
{
anchors = (
{
name = top;
position = "{272, 500}";
}
);
layerId = "90FEB760-6DE5-46E5-A8E9-582C63BAB3AD";
name = Regular;
paths = (
{
closed = 1;
nodes = (
"114 207 OFFCURVE",
"61 171 OFFCURVE",
"61 110 CURVE SMOOTH",
"61 35 OFFCURVE",
"150 0 OFFCURVE",
"211 0 CURVE SMOOTH",
"345 0 LINE SMOOTH",
"420 0 OFFCURVE",
"444 -23 OFFCURVE",
"444 -59 CURVE SMOOTH",
"444 -103 OFFCURVE",
"386 -143 OFFCURVE",
"280 -143 CURVE SMOOTH",
"170 -143 OFFCURVE",
"115 -111 OFFCURVE",
"115 -62 CURVE SMOOTH",
"115 -24 OFFCURVE",
"148 0 OFFCURVE",
"211 0 CURVE",
"187 34 LINE",
"99 34 OFFCURVE",
"38 -12 OFFCURVE",
"38 -78 CURVE SMOOTH",
"38 -153 OFFCURVE",
"113 -210 OFFCURVE",
"271 -210 CURVE SMOOTH",
"406 -210 OFFCURVE",
"522 -149 OFFCURVE",
"522 -50 CURVE SMOOTH",
"522 22 OFFCURVE",
"462 69 OFFCURVE",
"367 69 CURVE SMOOTH",
"237 69 LINE SMOOTH",
"172 69 OFFCURVE",
"136 87 OFFCURVE",
"136 124 CURVE SMOOTH",
"136 158 OFFCURVE",
"165 179 OFFCURVE",
"226 187 CURVE",
"183 214 LINE"
);
},
{
closed = 1;
nodes = (
"148 510 OFFCURVE",
"63 440 OFFCURVE",
"63 341 CURVE SMOOTH",
"63 242 OFFCURVE",
"136 172 OFFCURVE",
"268 172 CURVE SMOOTH",
"388 172 OFFCURVE",
"473 242 OFFCURVE",
"473 341 CURVE SMOOTH",
"473 440 OFFCURVE",
"388 510 OFFCURVE",
"268 510 CURVE SMOOTH"
);
},
{
closed = 1;
nodes = (
"337 445 OFFCURVE",
"390 403 OFFCURVE",
"390 341 CURVE SMOOTH",
"390 279 OFFCURVE",
"337 237 OFFCURVE",
"268 237 CURVE SMOOTH",
"199 237 OFFCURVE",
"146 279 OFFCURVE",
"146 341 CURVE SMOOTH",
"146 403 OFFCURVE",
"199 445 OFFCURVE",
"268 445 CURVE SMOOTH"
);
},
{
closed = 1;
nodes = (
"442 580 OFFCURVE",
"388 541 OFFCURVE",
"365 460 CURVE",
"403 446 LINE",
"417 489 OFFCURVE",
"446 504 OFFCURVE",
"523 504 CURVE",
"523 580 LINE"
);
}
);
width = 543;
}
);
unicode = 0067;
},
{
glyphname = h;
lastChange = "2014-07-11 13:27:22 +0100";
layers = (
{
layerId = "90FEB760-6DE5-46E5-A8E9-582C63BAB3AD";
leftMetricsKey = n;
rightMetricsKey = n;
name = Regular;
paths = (
{
closed = 1;
nodes = (
"234 510 OFFCURVE",
"163 457 OFFCURVE",
"139 327 CURVE",
"175 316 LINE",
"204 403 OFFCURVE",
"262 440 OFFCURVE",
"330 440 CURVE SMOOTH",
"399 440 OFFCURVE",
"453 403 OFFCURVE",
"453 292 CURVE SMOOTH",
"453 0 LINE",
"533 0 LINE",
"533 320 LINE SMOOTH",
"533 449 OFFCURVE",
"435 510 OFFCURVE",
"338 510 CURVE SMOOTH"
);
},
{
closed = 1;
nodes = (
"95 730 LINE",
"95 0 LINE",
"175 0 LINE",
"175 730 LINE"
);
}
);
width = 631;
}
);
leftMetricsKey = n;
rightMetricsKey = n;
unicode = 0068;
},
{
glyphname = i;
lastChange = "2014-07-11 13:27:22 +0100";
layers = (
{
components = (
{
name = dotaccent;
transform = "{1, 0, 0, 1, -115, 0}";
}
);
layerId = "90FEB760-6DE5-46E5-A8E9-582C63BAB3AD";
leftMetricsKey = "n-20";
rightMetricsKey = "=|n-20";
name = Regular;
paths = (
{
closed = 1;
nodes = (
"95 500 LINE",
"95 0 LINE",
"175 0 LINE",
"175 500 LINE"
);
}
);
width = 270;
}
);
leftMetricsKey = "n-20";
rightMetricsKey = "=|n-20";
unicode = 0069;
},
{
glyphname = dotlessi;
lastChange = "2014-07-11 13:27:22 +0100";
layers = (
{
anchors = (
{
name = ogonek;
position = "{243, 10}";
},
{
name = top;
position = "{135, 500}";
}
);
layerId = "90FEB760-6DE5-46E5-A8E9-582C63BAB3AD";
leftMetricsKey = n;
rightMetricsKey = "=|n";
name = Regular;
paths = (
{
closed = 1;
nodes = (
"95 500 LINE",
"95 0 LINE",
"175 0 LINE",
"175 500 LINE"
);
}
);
width = 270;
}
);
leftMetricsKey = n;
rightMetricsKey = "=|n";
unicode = 0131;
},
{
glyphname = j;
lastChange = "2014-07-11 13:27:22 +0100";
layers = (
{
components = (
{
name = dotaccent;
transform = "{1, 0, 0, 1, -119, 0}";
}
);
layerId = "90FEB760-6DE5-46E5-A8E9-582C63BAB3AD";
rightMetricsKey = "=|n-25";
name = Regular;
paths = (
{
closed = 1;
nodes = (
"91 500 LINE",
"91 -43 LINE SMOOTH",
"91 -108 OFFCURVE",
"61 -137 OFFCURVE",
"18 -137 CURVE SMOOTH",
"-22 -137 OFFCURVE",
"-46 -122 OFFCURVE",
"-68 -104 CURVE",
"-91 -184 LINE",
"-64 -201 OFFCURVE",
"-29 -215 OFFCURVE",
"16 -215 CURVE SMOOTH",
"80 -215 OFFCURVE",
"171 -189 OFFCURVE",
"171 -51 CURVE SMOOTH",
"171 500 LINE"
);
}
);
width = 261;
}
);
rightMetricsKey = "=|n-20";
unicode = 006A;
},
{
glyphname = k;
lastChange = "2014-07-11 13:27:22 +0100";
layers = (
{
layerId = "90FEB760-6DE5-46E5-A8E9-582C63BAB3AD";
leftMetricsKey = n;
name = Regular;
paths = (
{
closed = 1;
nodes = (
"434 500 LINE",
"135 201 LINE",
"135 101 LINE",
"534 500 LINE"
);
},
{
closed = 1;
nodes = (
"95 730 LINE",
"95 0 LINE",
"175 0 LINE",
"175 730 LINE"
);
},
{
closed = 1;
nodes = (
"258 280 LINE",
"449 0 LINE",
"546 0 LINE",
"325 325 LINE"
);
}
);
width = 553;
}
);
leftMetricsKey = n;
unicode = 006B;
},
{
glyphname = l;
lastChange = "2014-07-11 13:27:22 +0100";
layers = (
{
layerId = "90FEB760-6DE5-46E5-A8E9-582C63BAB3AD";
leftMetricsKey = n;
name = Regular;
paths = (
{
closed = 1;
nodes = (
"95 730 LINE",
"95 124 LINE SMOOTH",
"95 29 OFFCURVE",
"134 -10 OFFCURVE",
"215 -10 CURVE SMOOTH",
"241 -10 OFFCURVE",
"268 -5 OFFCURVE",
"289 4 CURVE",
"302 81 LINE",
"277 72 OFFCURVE",
"260 67 OFFCURVE",
"229 67 CURVE SMOOTH",
"194 67 OFFCURVE",
"175 94 OFFCURVE",
"175 134 CURVE SMOOTH",
"175 730 LINE"
);
}
);
width = 315;
}
);
leftMetricsKey = n;
unicode = 006C;
},
{
glyphname = lslash;
lastChange = "2014-07-11 13:27:22 +0100";
layers = (
{
components = (
{
name = l;
transform = "{1, 0, 0, 1, 29, 0}";
}
);
layerId = "90FEB760-6DE5-46E5-A8E9-582C63BAB3AD";
name = Regular;
paths = (
{
closed = 1;
nodes = (
"27 312 LINE",
"27 229 LINE",
"323 427 LINE",
"323 510 LINE"
);
}
);
width = 349;
}
);
unicode = 0142;
},
{
glyphname = m;
lastChange = "2014-07-11 13:27:22 +0100";
layers = (
{
guideLines = (
{
position = "{195, 423}";
}
);
layerId = "90FEB760-6DE5-46E5-A8E9-582C63BAB3AD";
leftMetricsKey = n;
rightMetricsKey = n;
name = Regular;
paths = (
{
closed = 1;
nodes = (
"595 510 OFFCURVE",
"530 470 OFFCURVE",
"481 376 CURVE",
"521 316 LINE",
"549 401 OFFCURVE",
"611 440 OFFCURVE",
"669 440 CURVE SMOOTH",
"735 440 OFFCURVE",
"787 403 OFFCURVE",
"787 312 CURVE SMOOTH",
"787 0 LINE",
"867 0 LINE",
"867 320 LINE SMOOTH",
"867 452 OFFCURVE",
"772 510 OFFCURVE",
"676 510 CURVE SMOOTH"
);
},
{
closed = 1;
nodes = (
"95 500 LINE",
"95 383 LINE",
"95 0 LINE",
"175 0 LINE",
"175 383 LINE",
"160 500 LINE"
);
},
{
closed = 1;
nodes = (
"235 510 OFFCURVE",
"159 453 OFFCURVE",
"139 327 CURVE",
"175 316 LINE",
"204 399 OFFCURVE",
"260 440 OFFCURVE",
"323 440 CURVE SMOOTH",
"389 440 OFFCURVE",
"441 403 OFFCURVE",
"441 312 CURVE SMOOTH",
"441 0 LINE",
"521 0 LINE",
"521 320 LINE SMOOTH",
"521 452 OFFCURVE",
"426 510 OFFCURVE",
"330 510 CURVE SMOOTH"
);
}
);
width = 965;
}
);
leftMetricsKey = n;
rightMetricsKey = n;
unicode = 006D;
},
{
glyphname = n;
lastChange = "2014-07-11 13:27:22 +0100";
layers = (
{
anchors = (
{
name = bottom;
position = "{316, 0}";
},
{
name = top;
position = "{320, 500}";
}
);
layerId = "90FEB760-6DE5-46E5-A8E9-582C63BAB3AD";
name = Regular;
paths = (
{
closed = 1;
nodes = (
"234 510 OFFCURVE",
"163 457 OFFCURVE",
"139 327 CURVE",
"175 316 LINE",
"204 403 OFFCURVE",
"262 440 OFFCURVE",
"330 440 CURVE SMOOTH",
"399 440 OFFCURVE",
"453 403 OFFCURVE",
"453 292 CURVE SMOOTH",
"453 0 LINE",
"533 0 LINE",
"533 320 LINE SMOOTH",
"533 449 OFFCURVE",
"445 510 OFFCURVE",
"338 510 CURVE SMOOTH"
);
},
{
closed = 1;
nodes = (
"95 500 LINE",
"95 383 LINE",
"95 0 LINE",
"175 0 LINE",
"175 383 LINE",
"160 500 LINE"
);
}
);
width = 631;
}
);
unicode = 006E;
},
{
glyphname = o;
lastChange = "2014-07-11 13:27:22 +0100";
layers = (
{
anchors = (
{
name = top;
position = "{303, 500}";
}
);
layerId = "90FEB760-6DE5-46E5-A8E9-582C63BAB3AD";
name = Regular;
paths = (
{
closed = 1;
nodes = (
"149 510 OFFCURVE",
"58 412 OFFCURVE",
"58 250 CURVE SMOOTH",
"58 88 OFFCURVE",
"149 -10 OFFCURVE",
"303 -10 CURVE SMOOTH",
"457 -10 OFFCURVE",
"548 88 OFFCURVE",
"548 250 CURVE SMOOTH",
"548 412 OFFCURVE",
"457 510 OFFCURVE",
"303 510 CURVE SMOOTH"
);
},
{
closed = 1;
nodes = (
"404 440 OFFCURVE",
"465 369 OFFCURVE",
"465 250 CURVE SMOOTH",
"465 131 OFFCURVE",
"404 60 OFFCURVE",
"303 60 CURVE SMOOTH",
"202 60 OFFCURVE",
"141 131 OFFCURVE",
"141 250 CURVE SMOOTH",
"141 369 OFFCURVE",
"202 440 OFFCURVE",
"303 440 CURVE SMOOTH"
);
}
);
width = 606;
}
);
unicode = 006F;
},
{
glyphname = oe;
lastChange = "2014-07-11 13:27:22 +0100";
layers = (
{
layerId = "90FEB760-6DE5-46E5-A8E9-582C63BAB3AD";
leftMetricsKey = o;
rightMetricsKey = e;
name = Regular;
paths = (
{
closed = 1;
nodes = (
"149 510 OFFCURVE",
"58 412 OFFCURVE",
"58 250 CURVE SMOOTH",
"58 88 OFFCURVE",
"149 -10 OFFCURVE",
"303 -10 CURVE SMOOTH",
"451 -10 OFFCURVE",
"538 88 OFFCURVE",
"538 250 CURVE SMOOTH",
"538 412 OFFCURVE",
"451 510 OFFCURVE",
"303 510 CURVE SMOOTH"
);
},
{
closed = 1;
nodes = (
"404 440 OFFCURVE",
"465 369 OFFCURVE",
"465 250 CURVE SMOOTH",
"465 131 OFFCURVE",
"404 60 OFFCURVE",
"303 60 CURVE SMOOTH",
"202 60 OFFCURVE",
"141 131 OFFCURVE",
"141 250 CURVE SMOOTH",
"141 369 OFFCURVE",
"202 440 OFFCURVE",
"303 440 CURVE SMOOTH"
);
},
{
closed = 1;
nodes = (
"556 510 OFFCURVE",
"475 412 OFFCURVE",
"475 250 CURVE SMOOTH",
"475 88 OFFCURVE",
"562 -10 OFFCURVE",
"707 -10 CURVE SMOOTH",
"815 -10 OFFCURVE",
"877 31 OFFCURVE",
"915 99 CURVE",
"848 134 LINE",
"830 86 OFFCURVE",
"780 60 OFFCURVE",
"707 60 CURVE SMOOTH",
"606 60 OFFCURVE",
"543 131 OFFCURVE",
"543 250 CURVE SMOOTH",
"543 369 OFFCURVE",
"600 440 OFFCURVE",
"701 440 CURVE SMOOTH",
"796 440 OFFCURVE",
"854 368 OFFCURVE",
"850 255 CURVE SMOOTH",
"849 220 LINE",
"926 220 LINE",
"926 255 LINE SMOOTH",
"926 412 OFFCURVE",
"846 510 OFFCURVE",
"701 510 CURVE SMOOTH"
);
},
{
closed = 1;
nodes = (
"517 291 LINE",
"517 220 LINE",
"889 220 LINE",
"889 291 LINE"
);
}
);
width = 986;
}
);
leftMetricsKey = o;
rightMetricsKey = e;
unicode = 0153;
},
{
glyphname = p;
lastChange = "2014-07-11 13:27:22 +0100";
layers = (
{
components = (
{
name = bowl;
transform = "{-1, 0, 0, 1, 649, 0}";
}
);
layerId = "90FEB760-6DE5-46E5-A8E9-582C63BAB3AD";
leftMetricsKey = n;
rightMetricsKey = o;
name = Regular;
paths = (
{
closed = 1;
nodes = (
"95 500 LINE",
"95 383 LINE",
"95 -210 LINE",
"175 -210 LINE",
"175 383 LINE",
"160 500 LINE"
);
}
);
width = 619;
}
);
leftMetricsKey = n;
rightMetricsKey = o;
unicode = 0070;
},
{
glyphname = q;
lastChange = "2014-07-11 13:27:22 +0100";
layers = (
{
components = (
{
name = bowl;
transform = "{1, 0, 0, 1, -30, 0}";
}
);
layerId = "90FEB760-6DE5-46E5-A8E9-582C63BAB3AD";
leftMetricsKey = o;
rightMetricsKey = "=|n";
name = Regular;
paths = (
{
closed = 1;
nodes = (
"459 500 LINE",
"444 383 LINE",
"444 -210 LINE",
"524 -210 LINE",
"524 383 LINE",
"524 500 LINE"
);
}
);
width = 619;
}
);
leftMetricsKey = o;
rightMetricsKey = "=|n";
unicode = 0071;
},
{
glyphname = r;
lastChange = "2014-07-11 13:27:22 +0100";
layers = (
{
anchors = (
{
name = bottom;
position = "{193, 0}";
},
{
name = top;
position = "{222, 500}";
}
);
layerId = "90FEB760-6DE5-46E5-A8E9-582C63BAB3AD";
leftMetricsKey = n;
name = Regular;
paths = (
{
closed = 1;
nodes = (
"216 510 OFFCURVE",
"152 438 OFFCURVE",
"142 315 CURVE",
"173 309 LINE",
"183 401 OFFCURVE",
"255 427 OFFCURVE",
"307 427 CURVE SMOOTH",
"333 427 OFFCURVE",
"355 422 OFFCURVE",
"370 414 CURVE",
"386 500 LINE",
"371 508 OFFCURVE",
"348 510 OFFCURVE",
"331 510 CURVE SMOOTH"
);
},
{
closed = 1;
nodes = (
"95 500 LINE",
"95 383 LINE",
"95 0 LINE",
"175 0 LINE",
"175 383 LINE",
"160 500 LINE"
);
}
);
width = 385;
}
);
leftMetricsKey = n;
unicode = 0072;
},
{
glyphname = s;
lastChange = "2014-07-11 13:27:22 +0100";
layers = (
{
anchors = (
{
name = bottom;
position = "{265, 0}";
},
{
name = top;
position = "{272, 500}";
}
);
layerId = "90FEB760-6DE5-46E5-A8E9-582C63BAB3AD";
name = Regular;
paths = (
{
closed = 1;
nodes = (
"150 510 OFFCURVE",
"75 441 OFFCURVE",
"75 360 CURVE SMOOTH",
"75 276 OFFCURVE",
"130 237 OFFCURVE",
"254 214 CURVE SMOOTH",
"380 191 OFFCURVE",
"400 171 OFFCURVE",
"400 126 CURVE SMOOTH",
"400 93 OFFCURVE",
"356 65 OFFCURVE",
"279 65 CURVE SMOOTH",
"207 65 OFFCURVE",
"154 94 OFFCURVE",
"130 153 CURVE",
"57 117 LINE",
"89 24 OFFCURVE",
"169 -10 OFFCURVE",
"271 -10 CURVE SMOOTH",
"399 -10 OFFCURVE",
"480 51 OFFCURVE",
"480 138 CURVE SMOOTH",
"480 223 OFFCURVE",
"431 259 OFFCURVE",
"314 279 CURVE SMOOTH",
"182 302 OFFCURVE",
"155 327 OFFCURVE",
"155 366 CURVE SMOOTH",
"155 404 OFFCURVE",
"205 438 OFFCURVE",
"272 438 CURVE SMOOTH",
"335 438 OFFCURVE",
"381 414 OFFCURVE",
"403 348 CURVE",
"470 390 LINE",
"442 472 OFFCURVE",
"379 510 OFFCURVE",
"272 510 CURVE SMOOTH"
);
}
);
width = 530;
}
);
unicode = 0073;
},
{
glyphname = t;
lastChange = "2014-07-11 13:27:22 +0100";
layers = (
{
layerId = "90FEB760-6DE5-46E5-A8E9-582C63BAB3AD";
name = Regular;
paths = (
{
closed = 1;
nodes = (
"120 620 LINE",
"120 124 LINE SMOOTH",
"121 27 OFFCURVE",
"185 -10 OFFCURVE",
"259 -10 CURVE SMOOTH",
"322 -10 OFFCURVE",
"357 7 OFFCURVE",
"388 35 CURVE",
"360 102 LINE",
"337 79 OFFCURVE",
"311 65 OFFCURVE",
"275 65 CURVE SMOOTH",
"231 65 OFFCURVE",
"200 89 OFFCURVE",
"200 138 CURVE SMOOTH",
"200 642 LINE"
);
},
{
closed = 1;
nodes = (
"20 500 LINE",
"20 431 LINE",
"375 431 LINE",
"375 500 LINE"
);
}
);
width = 423;
}
);
unicode = 0074;
},
{
glyphname = u;
lastChange = "2014-07-11 13:27:22 +0100";
layers = (
{
anchors = (
{
name = ogonek;
position = "{564, 10}";
},
{
name = top;
position = "{314, 500}";
}
);
layerId = "90FEB760-6DE5-46E5-A8E9-582C63BAB3AD";
leftMetricsKey = "|n";
rightMetricsKey = "|n";
name = Regular;
paths = (
{
closed = 1;
nodes = (
"94 500 LINE",
"94 173 LINE SMOOTH",
"94 41 OFFCURVE",
"179 -10 OFFCURVE",
"278 -10 CURVE SMOOTH",
"402 -10 OFFCURVE",
"474 53 OFFCURVE",
"488 173 CURVE",
"452 184 LINE",
"439 106 OFFCURVE",
"379 60 OFFCURVE",
"292 60 CURVE SMOOTH",
"220 60 OFFCURVE",
"174 91 OFFCURVE",
"174 194 CURVE SMOOTH",
"174 500 LINE"
);
},
{
closed = 1;
nodes = (
"452 500 LINE",
"452 117 LINE",
"467 0 LINE",
"532 0 LINE",
"532 117 LINE",
"532 500 LINE"
);
}
);
width = 627;
}
);
leftMetricsKey = "=|n";
rightMetricsKey = "=|n";
unicode = 0075;
},
{
glyphname = v;
lastChange = "2014-07-11 13:27:22 +0100";
layers = (
{
layerId = "90FEB760-6DE5-46E5-A8E9-582C63BAB3AD";
name = Regular;
paths = (
{
closed = 1;
nodes = (
"424 500 LINE",
"220 0 LINE",
"300 0 LINE",
"513 500 LINE"
);
},
{
closed = 1;
nodes = (
"7 500 LINE",
"220 0 LINE",
"300 0 LINE",
"96 500 LINE"
);
}
);
width = 520;
}
);
unicode = 0076;
},
{
glyphname = w;
lastChange = "2014-07-11 13:27:22 +0100";
layers = (
{
layerId = "90FEB760-6DE5-46E5-A8E9-582C63BAB3AD";
name = Regular;
paths = (
{
closed = 1;
nodes = (
"368 500 LINE",
"545 0 LINE",
"625 0 LINE",
"448 500 LINE"
);
},
{
closed = 1;
nodes = (
"17 500 LINE",
"191 0 LINE",
"271 0 LINE",
"106 500 LINE"
);
},
{
closed = 1;
nodes = (
"368 500 LINE",
"201 0 LINE",
"271 0 LINE",
"438 500 LINE"
);
},
{
closed = 1;
nodes = (
"710 500 LINE",
"555 0 LINE",
"625 0 LINE",
"799 500 LINE"
);
}
);
width = 816;
}
);
unicode = 0077;
},
{
glyphname = x;
lastChange = "2014-07-11 13:27:22 +0100";
layers = (
{
layerId = "90FEB760-6DE5-46E5-A8E9-582C63BAB3AD";
name = Regular;
paths = (
{
closed = 1;
nodes = (
"361 500 LINE",
"218 288 LINE",
"212 288 LINE",
"4 0 LINE",
"98 0 LINE",
"258 237 LINE",
"262 237 LINE",
"445 500 LINE"
);
},
{
closed = 1;
nodes = (
"21 500 LINE",
"361 0 LINE",
"457 0 LINE",
"117 500 LINE"
);
},
{
closed = 1;
nodes = (
"21 500 LINE",
"361 0 LINE",
"457 0 LINE",
"117 500 LINE"
);
}
);
width = 475;
}
);
unicode = 0078;
},
{
glyphname = y;
lastChange = "2014-07-11 13:27:22 +0100";
layers = (
{
layerId = "90FEB760-6DE5-46E5-A8E9-582C63BAB3AD";
rightMetricsKey = v;
name = Regular;
paths = (
{
closed = 1;
nodes = (
"433 500 LINE",
"206 -64 LINE SMOOTH",
"181 -127 OFFCURVE",
"149 -142 OFFCURVE",
"109 -142 CURVE SMOOTH",
"79 -142 OFFCURVE",
"51 -139 OFFCURVE",
"15 -112 CURVE",
"29 -196 LINE",
"48 -206 OFFCURVE",
"74 -215 OFFCURVE",
"116 -215 CURVE SMOOTH",
"193 -215 OFFCURVE",
"233 -182 OFFCURVE",
"266 -103 CURVE SMOOTH",
"519 500 LINE"
);
},
{
closed = 1;
nodes = (
"13 500 LINE",
"233 0 LINE",
"310 0 LINE",
"104 500 LINE"
);
}
);
width = 526;
}
);
rightMetricsKey = v;
unicode = 0079;
},
{
glyphname = z;
lastChange = "2014-07-11 13:27:22 +0100";
layers = (
{
layerId = "90FEB760-6DE5-46E5-A8E9-582C63BAB3AD";
name = Regular;
paths = (
{
closed = 1;
nodes = (
"68 63 LINE",
"122 13 LINE",
"506 438 LINE",
"452 487 LINE"
);
},
{
closed = 1;
nodes = (
"251 68 LINE",
"68 63 LINE",
"68 0 LINE",
"251 0 LINE",
"506 0 LINE",
"506 68 LINE"
);
},
{
closed = 1;
nodes = (
"332 500 LINE",
"68 500 LINE",
"68 433 LINE",
"332 433 LINE",
"506 438 LINE",
"506 500 LINE"
);
}
);
width = 564;
}
);
unicode = 007A;
},
{
glyphname = kadeva;
lastChange = "2014-07-11 13:27:22 +0100";
layers = (
{
anchors = (
{
name = DVAnchor0;
position = "{490, 0}";
},
{
name = DVAnchor3;
position = "{439, 660}";
}
);
layerId = "90FEB760-6DE5-46E5-A8E9-582C63BAB3AD";
name = Regular;
paths = (
{
closed = 1;
nodes = (
"131 500 OFFCURVE",
"54 420 OFFCURVE",
"54 299 CURVE SMOOTH",
"54 196 OFFCURVE",
"138 119 OFFCURVE",
"235 119 CURVE SMOOTH",
"374 119 OFFCURVE",
"413 201 OFFCURVE",
"444 278 CURVE",
"399 303 LINE",
"365 239 OFFCURVE",
"322 189 OFFCURVE",
"252 189 CURVE SMOOTH",
"180 189 OFFCURVE",
"134 235 OFFCURVE",
"134 313 CURVE SMOOTH",
"134 382 OFFCURVE",
"178 429 OFFCURVE",
"244 429 CURVE SMOOTH",
"275 429 OFFCURVE",
"294 423 OFFCURVE",
"312 412 CURVE",
"308 487 LINE",
"287 495 OFFCURVE",
"269 500 OFFCURVE",
"235 500 CURVE SMOOTH"
);
},
{
closed = 1;
nodes = (
"399 627 LINE",
"399 0 LINE",
"479 0 LINE",
"479 627 LINE"
);
},
{
closed = 1;
nodes = (
"745 123 OFFCURVE",
"822 203 OFFCURVE",
"822 324 CURVE SMOOTH",
"822 427 OFFCURVE",
"738 504 OFFCURVE",
"641 504 CURVE SMOOTH",
"502 504 OFFCURVE",
"463 422 OFFCURVE",
"432 345 CURVE",
"477 320 LINE",
"511 384 OFFCURVE",
"554 434 OFFCURVE",
"624 434 CURVE SMOOTH",
"696 434 OFFCURVE",
"742 388 OFFCURVE",
"742 310 CURVE SMOOTH",
"742 241 OFFCURVE",
"698 194 OFFCURVE",
"632 194 CURVE SMOOTH",
"606 194 OFFCURVE",
"587 196 OFFCURVE",
"572 203 CURVE",
"578 136 LINE",
"596 128 OFFCURVE",
"612 123 OFFCURVE",
"641 123 CURVE SMOOTH"
);
},
{
closed = 1;
nodes = (
"-20 660 LINE",
"-20 594 LINE",
"896 594 LINE",
"896 660 LINE"
);
}
);
width = 876;
}
);
unicode = 0915;
},
{
glyphname = khadeva;
lastChange = "2014-07-11 13:27:22 +0100";
layers = (
{
anchors = (
{
name = DVAnchor0;
position = "{767, 0}";
},
{
name = DVAnchor3;
position = "{767, 660}";
}
);
layerId = "90FEB760-6DE5-46E5-A8E9-582C63BAB3AD";
name = Regular;
paths = (
{
closed = 1;
nodes = (
"727 627 LINE",
"727 0 LINE",
"807 0 LINE",
"807 627 LINE"
);
},
{
closed = 1;
nodes = (
"-20 660 LINE",
"-20 594 LINE",
"936 594 LINE",
"936 660 LINE"
);
},
{
closed = 1;
nodes = (
"473 521 OFFCURVE",
"403 455 OFFCURVE",
"403 356 CURVE SMOOTH",
"403 257 OFFCURVE",
"471 190 OFFCURVE",
"571 190 CURVE SMOOTH",
"678 190 OFFCURVE",
"734 264 OFFCURVE",
"768 344 CURVE",
"727 366 LINE",
"698 307 OFFCURVE",
"651 261 OFFCURVE",
"582 260 CURVE SMOOTH",
"517 260 OFFCURVE",
"481 296 OFFCURVE",
"481 359 CURVE SMOOTH",
"481 415 OFFCURVE",
"514 448 OFFCURVE",
"575 452 CURVE SMOOTH",
"608 454 OFFCURVE",
"631 445 OFFCURVE",
"646 423 CURVE",
"682 473 LINE",
"664 499 OFFCURVE",
"628 521 OFFCURVE",
"578 521 CURVE SMOOTH"
);
},
{
closed = 1;
nodes = (
"102 301 OFFCURVE",
"172 265 OFFCURVE",
"245 302 CURVE SMOOTH",
"296 328 OFFCURVE",
"316 377 OFFCURVE",
"316 456 CURVE SMOOTH",
"316 632 LINE",
"236 632 LINE",
"236 456 LINE SMOOTH",
"236 395 OFFCURVE",
"228 366 OFFCURVE",
"197 354 CURVE SMOOTH",
"158 338 OFFCURVE",
"115 370 OFFCURVE",
"94 418 CURVE",
"67 386 LINE"
);
},
{
closed = 1;
nodes = (
"664 97 OFFCURVE",
"565 70 OFFCURVE",
"502 70 CURVE SMOOTH",
"307 70 OFFCURVE",
"177 219 OFFCURVE",
"94 418 CURVE",
"28 390 LINE",
"122 162 OFFCURVE",
"273 0 OFFCURVE",
"495 0 CURVE SMOOTH",
"622 0 OFFCURVE",
"700 38 OFFCURVE",
"769 136 CURVE",
"727 171 LINE"
);
}
);
width = 917;
}
);
unicode = 0916;
},
{
glyphname = ddadeva;
lastChange = "2014-07-11 13:27:22 +0100";
layers = (
{
anchors = (
{
name = DVAnchor0;
position = "{355, 45}";
},
{
name = DVAnchor3;
position = "{490, 660}";
}
);
layerId = "90FEB760-6DE5-46E5-A8E9-582C63BAB3AD";
name = Regular;
paths = (
{
closed = 1;
nodes = (
"-20 660 LINE",
"-20 594 LINE",
"668 594 LINE",
"668 660 LINE"
);
},
{
closed = 1;
nodes = (
"450 627 LINE",
"450 436 LINE",
"530 436 LINE",
"530 627 LINE"
);
},
{
closed = 1;
nodes = (
"266 502 LINE SMOOTH",
"179 502 OFFCURVE",
"139 446 OFFCURVE",
"139 377 CURVE SMOOTH",
"139 287 OFFCURVE",
"229 230 OFFCURVE",
"317 230 CURVE SMOOTH",
"387 230 OFFCURVE",
"431 257 OFFCURVE",
"465 257 CURVE SMOOTH",
"496 257 OFFCURVE",
"515 239 OFFCURVE",
"515 202 CURVE SMOOTH",
"515 125 OFFCURVE",
"449 83 OFFCURVE",
"324 83 CURVE SMOOTH",
"223 83 OFFCURVE",
"135 136 OFFCURVE",
"64 240 CURVE",
"12 200 LINE",
"94 74 OFFCURVE",
"194 15 OFFCURVE",
"326 15 CURVE SMOOTH",
"455 15 OFFCURVE",
"589 55 OFFCURVE",
"589 201 CURVE SMOOTH",
"589 284 OFFCURVE",
"527 333 OFFCURVE",
"484 333 CURVE SMOOTH",
"428 333 OFFCURVE",
"382 303 OFFCURVE",
"325 303 CURVE SMOOTH",
"274 303 OFFCURVE",
"215 325 OFFCURVE",
"215 380 CURVE SMOOTH",
"215 421 OFFCURVE",
"237 436 OFFCURVE",
"271 436 CURVE SMOOTH",
"493 436 LINE",
"493 502 LINE"
);
}
);
width = 648;
}
);
unicode = 0921;
},
{
glyphname = tadeva;
lastChange = "2014-07-11 13:27:22 +0100";
layers = (
{
anchors = (
{
name = DVAnchor3;
position = "{509, 660}";
}
);
layerId = "90FEB760-6DE5-46E5-A8E9-582C63BAB3AD";
name = Regular;
paths = (
{
closed = 1;
nodes = (
"182 139 OFFCURVE",
"127 190 OFFCURVE",
"127 267 CURVE SMOOTH",
"127 342 OFFCURVE",
"162 386 OFFCURVE",
"258 386 CURVE SMOOTH",
"507 386 LINE",
"507 452 LINE",
"234 452 LINE SMOOTH",
"111 452 OFFCURVE",
"48 388 OFFCURVE",
"48 280 CURVE SMOOTH",
"48 139 OFFCURVE",
"143 74 OFFCURVE",
"273 0 CURVE",
"314 61 LINE"
);
},
{
closed = 1;
nodes = (
"469 627 LINE",
"469 0 LINE",
"549 0 LINE",
"549 627 LINE"
);
},
{
closed = 1;
nodes = (
"-20 660 LINE",
"-20 594 LINE",
"679 594 LINE",
"679 660 LINE"
);
}
);
width = 659;
}
);
unicode = 0924;
},
{
glyphname = thadeva;
lastChange = "2014-07-11 13:27:22 +0100";
layers = (
{
anchors = (
{
name = DVAnchor3;
position = "{566, 660}";
}
);
layerId = "90FEB760-6DE5-46E5-A8E9-582C63BAB3AD";
name = Regular;
paths = (
{
closed = 1;
nodes = (
"119 665 OFFCURVE",
"63 611 OFFCURVE",
"63 528 CURVE SMOOTH",
"63 482 OFFCURVE",
"75 452 OFFCURVE",
"106 421 CURVE",
"164 443 LINE",
"149 465 OFFCURVE",
"141 487 OFFCURVE",
"141 514 CURVE SMOOTH",
"141 566 OFFCURVE",
"166 595 OFFCURVE",
"222 595 CURVE SMOOTH",
"270 595 OFFCURVE",
"297 562 OFFCURVE",
"297 507 CURVE SMOOTH",
"297 403 OFFCURVE",
"233 377 OFFCURVE",
"30 337 CURVE",
"53 166 OFFCURVE",
"157 105 OFFCURVE",
"303 105 CURVE SMOOTH",
"464 105 OFFCURVE",
"548 191 OFFCURVE",
"577 310 CURVE",
"526 331 LINE",
"502 241 OFFCURVE",
"415 175 OFFCURVE",
"307 175 CURVE SMOOTH",
"194 175 OFFCURVE",
"122 228 OFFCURVE",
"112 290 CURVE",
"308 321 OFFCURVE",
"377 389 OFFCURVE",
"377 510 CURVE SMOOTH",
"377 593 OFFCURVE",
"330 665 OFFCURVE",
"223 665 CURVE SMOOTH"
);
},
{
closed = 1;
nodes = (
"526 627 LINE",
"526 0 LINE",
"606 0 LINE",
"606 627 LINE"
);
},
{
closed = 1;
nodes = (
"441 660 LINE",
"441 594 LINE",
"735 594 LINE",
"735 660 LINE"
);
}
);
width = 715;
}
);
unicode = 0925;
},
{
glyphname = dadeva;
lastChange = "2014-07-11 13:27:22 +0100";
layers = (
{
anchors = (
{
name = DVAnchor0;
position = "{540, 7}";
},
{
name = DVAnchor3;
position = "{436, 660}";
}
);
layerId = "90FEB760-6DE5-46E5-A8E9-582C63BAB3AD";
name = Regular;
paths = (
{
closed = 1;
nodes = (
"133 459 OFFCURVE",
"43 409 OFFCURVE",
"43 282 CURVE SMOOTH",
"43 168 OFFCURVE",
"138 102 OFFCURVE",
"260 102 CURVE SMOOTH",
"393 102 OFFCURVE",
"446 140 OFFCURVE",
"487 183 CURVE SMOOTH",
"524 221 OFFCURVE",
"523 294 OFFCURVE",
"463 310 CURVE SMOOTH",
"412 324 OFFCURVE",
"367 269 OFFCURVE",
"385 198 CURVE",
"343 177 OFFCURVE",
"319 172 OFFCURVE",
"267 172 CURVE SMOOTH",
"193 172 OFFCURVE",
"123 207 OFFCURVE",
"123 287 CURVE SMOOTH",
"123 359 OFFCURVE",
"171 391 OFFCURVE",
"264 403 CURVE SMOOTH",
"476 433 LINE",
"476 502 LINE",
"242 472 LINE SMOOTH"
);
},
{
closed = 1;
nodes = (
"396 627 LINE",
"396 460 LINE",
"476 460 LINE",
"476 627 LINE"
);
},
{
closed = 1;
nodes = (
"-20 660 LINE",
"-20 594 LINE",
"613 594 LINE",
"613 660 LINE"
);
},
{
closed = 1;
nodes = (
"397 147 LINE",
"420 85 OFFCURVE",
"441 35 OFFCURVE",
"487 -43 CURVE",
"572 -24 LINE",
"517 49 OFFCURVE",
"467 109 OFFCURVE",
"440 200 CURVE"
);
}
);
width = 593;
}
);
unicode = 0926;
},
{
glyphname = dhadeva;
lastChange = "2014-07-11 13:27:22 +0100";
layers = (
{
anchors = (
{
name = DVAnchor3;
position = "{554, 660}";
}
);
layerId = "90FEB760-6DE5-46E5-A8E9-582C63BAB3AD";
name = Regular;
paths = (
{
closed = 1;
nodes = (
"212 430 OFFCURVE",
"80 394 OFFCURVE",
"80 261 CURVE SMOOTH",
"80 154 OFFCURVE",
"167 105 OFFCURVE",
"283 105 CURVE SMOOTH",
"412 105 OFFCURVE",
"505 169 OFFCURVE",
"562 239 CURVE",
"514 272 LINE",
"451 208 OFFCURVE",
"399 175 OFFCURVE",
"293 175 CURVE SMOOTH",
"197 175 OFFCURVE",
"156 206 OFFCURVE",
"156 265 CURVE SMOOTH",
"156 344 OFFCURVE",
"232 367 OFFCURVE",
"335 367 CURVE",
"315 430 LINE"
);
},
{
closed = 1;
nodes = (
"514 627 LINE",
"514 0 LINE",
"594 0 LINE",
"594 627 LINE"
);
},
{
closed = 1;
nodes = (
"383 660 LINE",
"383 594 LINE",
"723 594 LINE",
"723 660 LINE"
);
},
{
closed = 1;
nodes = (
"149 665 OFFCURVE",
"78 603 OFFCURVE",
"78 523 CURVE SMOOTH",
"78 418 OFFCURVE",
"187 367 OFFCURVE",
"335 367 CURVE",
"315 430 LINE",
"196 430 OFFCURVE",
"155 472 OFFCURVE",
"155 518 CURVE SMOOTH",
"155 556 OFFCURVE",
"182 595 OFFCURVE",
"273 595 CURVE",
"254 665 LINE"
);
}
);
width = 703;
}
);
unicode = 0927;
},
{
glyphname = padeva;
lastChange = "2014-07-11 13:27:22 +0100";
layers = (
{
anchors = (
{
name = DVAnchor3;
position = "{488, 660}";
}
);
layerId = "90FEB760-6DE5-46E5-A8E9-582C63BAB3AD";
name = Regular;
paths = (
{
closed = 1;
nodes = (
"93 627 LINE",
"93 339 LINE SMOOTH",
"93 223 OFFCURVE",
"175 169 OFFCURVE",
"270 169 CURVE SMOOTH",
"388 169 OFFCURVE",
"463 227 OFFCURVE",
"496 346 CURVE",
"448 371 LINE",
"423 294 OFFCURVE",
"363 239 OFFCURVE",
"293 239 CURVE SMOOTH",
"216 239 OFFCURVE",
"173 272 OFFCURVE",
"173 366 CURVE SMOOTH",
"173 627 LINE"
);
},
{
closed = 1;
nodes = (
"448 627 LINE",
"448 0 LINE",
"528 0 LINE",
"528 627 LINE"
);
},
{
closed = 1;
nodes = (
"-20 660 LINE",
"-20 594 LINE",
"657 594 LINE",
"657 660 LINE"
);
}
);
width = 637;
}
);
unicode = 092A;
},
{
glyphname = bhadeva;
lastChange = "2014-07-11 13:27:22 +0100";
layers = (
{
anchors = (
{
name = DVAnchor3;
position = "{480, 660}";
}
);
layerId = "90FEB760-6DE5-46E5-A8E9-582C63BAB3AD";
name = Regular;
paths = (
{
closed = 1;
nodes = (
"440 627 LINE",
"440 0 LINE",
"520 0 LINE",
"520 627 LINE"
);
},
{
closed = 1;
nodes = (
"299 660 LINE",
"299 594 LINE",
"651 594 LINE",
"651 660 LINE"
);
},
{
closed = 1;
nodes = (
"440 627 LINE",
"440 0 LINE",
"520 0 LINE",
"520 627 LINE"
);
},
{
closed = 1;
nodes = (
"299 660 LINE",
"299 594 LINE",
"651 594 LINE",
"651 660 LINE"
);
},
{
closed = 1;
nodes = (
"196 611 OFFCURVE",
"142 660 OFFCURVE",
"36 660 CURVE SMOOTH",
"-20 660 LINE",
"-20 594 LINE",
"16 594 LINE SMOOTH",
"90 594 OFFCURVE",
"116 568 OFFCURVE",
"116 496 CURVE SMOOTH",
"116 310 LINE SMOOTH",
"116 287 OFFCURVE",
"183 285 OFFCURVE",
"163 301 CURVE SMOOTH",
"158 305 OFFCURVE",
"153 310 OFFCURVE",
"148 316 CURVE SMOOTH",
"133 334 OFFCURVE",
"138 274 OFFCURVE",
"154 274 CURVE SMOOTH",
"477 274 LINE",
"477 340 LINE",
"97 340 LINE SMOOTH",
"62 340 OFFCURVE",
"30 295 OFFCURVE",
"49 268 CURVE SMOOTH",
"63 248 OFFCURVE",
"101 211 OFFCURVE",
"119 196 CURVE SMOOTH",
"147 173 OFFCURVE",
"196 195 OFFCURVE",
"196 227 CURVE SMOOTH",
"196 516 LINE SMOOTH"
);
}
);
width = 631;
}
);
unicode = 092D;
},
{
glyphname = vadeva;
lastChange = "2014-07-11 13:27:22 +0100";
layers = (
{
anchors = (
{
name = DVAnchor3;
position = "{477, 660}";
}
);
layerId = "90FEB760-6DE5-46E5-A8E9-582C63BAB3AD";
name = Regular;
paths = (
{
closed = 1;
nodes = (
"144 505 OFFCURVE",
"54 423 OFFCURVE",
"54 312 CURVE SMOOTH",
"54 193 OFFCURVE",
"149 112 OFFCURVE",
"256 112 CURVE SMOOTH",
"386 112 OFFCURVE",
"446 189 OFFCURVE",
"484 309 CURVE",
"437 325 LINE",
"402 235 OFFCURVE",
"350 182 OFFCURVE",
"266 182 CURVE SMOOTH",
"194 182 OFFCURVE",
"134 227 OFFCURVE",
"134 310 CURVE SMOOTH",
"134 391 OFFCURVE",
"189 433 OFFCURVE",
"259 433 CURVE SMOOTH",
"295 433 OFFCURVE",
"325 423 OFFCURVE",
"348 405 CURVE",
"342 484 LINE",
"327 495 OFFCURVE",
"292 505 OFFCURVE",
"253 505 CURVE SMOOTH"
);
},
{
closed = 1;
nodes = (
"437 627 LINE",
"437 0 LINE",
"517 0 LINE",
"517 627 LINE"
);
},
{
closed = 1;
nodes = (
"-20 660 LINE",
"-20 594 LINE",
"646 594 LINE",
"646 660 LINE"
);
}
);
width = 626;
}
);
unicode = 0935;
},
{
glyphname = ddadeva_viramadeva_ddadeva;
lastChange = "2014-07-11 13:27:22 +0100";
layers = (
{
anchors = (
{
name = DVAnchor0;
position = "{360, -113}";
}
);
layerId = "90FEB760-6DE5-46E5-A8E9-582C63BAB3AD";
name = Regular;
paths = (
{
closed = 1;
nodes = (
"-20 660 LINE",
"-20 594 LINE",
"690 594 LINE",
"690 660 LINE"
);
},
{
closed = 1;
nodes = (
"487 627 LINE",
"487 456 LINE",
"567 456 LINE",
"567 627 LINE"
);
},
{
closed = 1;
nodes = (
"253 522 LINE SMOOTH",
"166 522 OFFCURVE",
"126 473 OFFCURVE",
"126 418 CURVE SMOOTH",
"126 326 OFFCURVE",
"217 288 OFFCURVE",
"295 288 CURVE SMOOTH",
"375 288 OFFCURVE",
"458 317 OFFCURVE",
"492 317 CURVE SMOOTH",
"523 317 OFFCURVE",
"533 312 OFFCURVE",
"532 284 CURVE SMOOTH",
"531 238 OFFCURVE",
"457 208 OFFCURVE",
"364 208 CURVE SMOOTH",
"233 208 OFFCURVE",
"138 256 OFFCURVE",
"78 324 CURVE",
"33 280 LINE",
"105 199 OFFCURVE",
"208 143 OFFCURVE",
"358 141 CURVE SMOOTH",
"493 139 OFFCURVE",
"606 192 OFFCURVE",
"606 298 CURVE SMOOTH",
"606 381 OFFCURVE",
"554 393 OFFCURVE",
"511 393 CURVE SMOOTH",
"455 393 OFFCURVE",
"372 361 OFFCURVE",
"315 361 CURVE SMOOTH",
"259 361 OFFCURVE",
"206 378 OFFCURVE",
"206 414 CURVE SMOOTH",
"206 443 OFFCURVE",
"224 456 OFFCURVE",
"258 456 CURVE SMOOTH",
"530 456 LINE",
"530 522 LINE"
);
},
{
closed = 1;
nodes = (
"167 225 LINE",
"25 104 OFFCURVE",
"192 -6 OFFCURVE",
"305 -6 CURVE SMOOTH",
"419 -6 OFFCURVE",
"458 23 OFFCURVE",
"492 23 CURVE SMOOTH",
"523 23 OFFCURVE",
"533 18 OFFCURVE",
"532 -10 CURVE SMOOTH",
"531 -56 OFFCURVE",
"457 -86 OFFCURVE",
"364 -86 CURVE SMOOTH",
"233 -86 OFFCURVE",
"138 -38 OFFCURVE",
"78 30 CURVE",
"33 -14 LINE",
"105 -95 OFFCURVE",
"208 -151 OFFCURVE",
"358 -153 CURVE SMOOTH",
"493 -155 OFFCURVE",
"606 -102 OFFCURVE",
"606 4 CURVE SMOOTH",
"606 87 OFFCURVE",
"554 99 OFFCURVE",
"511 99 CURVE SMOOTH",
"455 99 OFFCURVE",
"372 67 OFFCURVE",
"315 67 CURVE SMOOTH",
"234 67 OFFCURVE",
"127 121 OFFCURVE",
"226 191 CURVE"
);
}
);
width = 670;
}
);
},
{
glyphname = adeva;
lastChange = "2014-07-11 13:27:22 +0100";
layers = (
{
anchors = (
{
name = DVAnchor3;
position = "{638, 660}";
}
);
layerId = "90FEB760-6DE5-46E5-A8E9-582C63BAB3AD";
name = Regular;
paths = (
{
closed = 1;
nodes = (
"198 321 LINE",
"329 321 OFFCURVE",
"372 271 OFFCURVE",
"372 205 CURVE SMOOTH",
"372 148 OFFCURVE",
"342 103 OFFCURVE",
"258 103 CURVE SMOOTH",
"186 103 OFFCURVE",
"119 140 OFFCURVE",
"69 205 CURVE",
"21 168 LINE",
"99 70 OFFCURVE",
"176 33 OFFCURVE",
"265 33 CURVE SMOOTH",
"379 33 OFFCURVE",
"451 94 OFFCURVE",
"451 206 CURVE SMOOTH",
"451 309 OFFCURVE",
"350 370 OFFCURVE",
"198 370 CURVE"
);
},
{
closed = 1;
nodes = (
"188 660 OFFCURVE",
"126 633 OFFCURVE",
"93 589 CURVE",
"136 531 LINE",
"169 571 OFFCURVE",
"205 590 OFFCURVE",
"256 590 CURVE SMOOTH",
"324 590 OFFCURVE",
"347 554 OFFCURVE",
"347 503 CURVE SMOOTH",
"347 440 OFFCURVE",
"311 399 OFFCURVE",
"198 385 CURVE",
"198 339 LINE",
"346 344 OFFCURVE",
"427 399 OFFCURVE",
"427 501 CURVE SMOOTH",
"427 608 OFFCURVE",
"355 660 OFFCURVE",
"258 660 CURVE SMOOTH"
);
},
{
closed = 1;
nodes = (
"198 326 LINE",
"322 326 OFFCURVE",
"422 271 OFFCURVE",
"491 271 CURVE SMOOTH",
"550 271 OFFCURVE",
"598 281 OFFCURVE",
"644 301 CURVE",
"628 362 LINE",
"585 344 OFFCURVE",
"544 335 OFFCURVE",
"495 335 CURVE SMOOTH",
"435 335 OFFCURVE",
"348 370 OFFCURVE",
"198 370 CURVE"
);
},
{
closed = 1;
nodes = (
"598 627 LINE",
"598 0 LINE",
"678 0 LINE",
"678 627 LINE"
);
},
{
closed = 1;
nodes = (
"467 660 LINE",
"467 594 LINE",
"809 594 LINE",
"809 660 LINE"
);
}
);
width = 789;
}
);
unicode = 0905;
},
{
glyphname = ideva;
lastChange = "2014-07-11 13:27:22 +0100";
layers = (
{
anchors = (
{
name = DVAnchor3;
position = "{413, 660}";
}
);
layerId = "90FEB760-6DE5-46E5-A8E9-582C63BAB3AD";
name = Regular;
paths = (
{
closed = 1;
nodes = (
"-20 660 LINE",
"-20 594 LINE",
"590 594 LINE",
"590 660 LINE"
);
},
{
closed = 1;
nodes = (
"373 627 LINE",
"373 436 LINE",
"453 436 LINE",
"453 627 LINE"
);
},
{
closed = 1;
nodes = (
"189 502 LINE SMOOTH",
"102 502 OFFCURVE",
"62 446 OFFCURVE",
"62 377 CURVE SMOOTH",
"62 287 OFFCURVE",
"152 230 OFFCURVE",
"240 230 CURVE SMOOTH",
"310 230 OFFCURVE",
"354 257 OFFCURVE",
"388 257 CURVE SMOOTH",
"419 257 OFFCURVE",
"438 239 OFFCURVE",
"438 202 CURVE SMOOTH",
"438 125 OFFCURVE",
"380 83 OFFCURVE",
"265 83 CURVE SMOOTH",
"214 83 OFFCURVE",
"180 91 OFFCURVE",
"148 111 CURVE SMOOTH",
"105 138 OFFCURVE",
"83 114 OFFCURVE",
"121 80 CURVE SMOOTH",
"199 11 OFFCURVE",
"316 -87 OFFCURVE",
"418 -148 CURVE",
"485 -103 LINE",
"259 10 OFFCURVE",
"170 127 OFFCURVE",
"134 162 CURVE SMOOTH",
"65 229 OFFCURVE",
"-9 135 OFFCURVE",
"56 77 CURVE SMOOTH",
"106 32 OFFCURVE",
"147 15 OFFCURVE",
"265 15 CURVE SMOOTH",
"360 15 OFFCURVE",
"512 55 OFFCURVE",
"512 201 CURVE SMOOTH",
"512 284 OFFCURVE",
"450 333 OFFCURVE",
"407 333 CURVE SMOOTH",
"351 333 OFFCURVE",
"305 303 OFFCURVE",
"248 303 CURVE SMOOTH",
"197 303 OFFCURVE",
"138 325 OFFCURVE",
"138 380 CURVE SMOOTH",
"138 421 OFFCURVE",
"160 436 OFFCURVE",
"194 436 CURVE SMOOTH",
"416 436 LINE",
"416 502 LINE"
);
}
);
width = 570;
}
);
unicode = 0907;
userData = {
com.typemytype.robofont.layerData = {
};
};
},
{
glyphname = edeva;
lastChange = "2014-07-11 13:27:22 +0100";
layers = (
{
anchors = (
{
name = DVAnchor3;
position = "{310, 660}";
}
);
guideLines = (
{
angle = 90;
position = "{498, 364}";
}
);
layerId = "90FEB760-6DE5-46E5-A8E9-582C63BAB3AD";
name = Regular;
paths = (
{
closed = 1;
nodes = (
"93 627 LINE",
"93 251 LINE",
"395 9 OFFCURVE",
"415 -12 OFFCURVE",
"415 -44 CURVE SMOOTH",
"415 -72 OFFCURVE",
"404 -97 OFFCURVE",
"387 -117 CURVE",
"470 -117 LINE",
"489 -95 OFFCURVE",
"498 -72 OFFCURVE",
"498 -37 CURVE SMOOTH",
"498 17 OFFCURVE",
"467 52 OFFCURVE",
"173 286 CURVE",
"173 627 LINE"
);
},
{
closed = 1;
nodes = (
"418 627 LINE",
"418 391 LINE SMOOTH",
"418 351 OFFCURVE",
"404 316 OFFCURVE",
"361 298 CURVE",
"417 241 LINE",
"463 261 OFFCURVE",
"498 306 OFFCURVE",
"498 373 CURVE SMOOTH",
"498 627 LINE"
);
},
{
closed = 1;
nodes = (
"-20 660 LINE",
"-20 594 LINE",
"621 594 LINE",
"621 660 LINE"
);
}
);
width = 601;
}
);
unicode = 090F;
},
{
glyphname = aasigndeva;
lastChange = "2014-07-11 13:41:23 +0100";
layers = (
{
layerId = "90FEB760-6DE5-46E5-A8E9-582C63BAB3AD";
name = Regular;
paths = (
{
closed = 1;
nodes = (
"111 627 LINE",
"111 0 LINE",
"191 0 LINE",
"191 627 LINE"
);
},
{
closed = 1;
nodes = (
"-20 660 LINE",
"-20 594 LINE",
"322 594 LINE",
"322 660 LINE"
);
}
);
width = 302;
},
{
associatedMasterId = "90FEB760-6DE5-46E5-A8E9-582C63BAB3AD";
layerId = "34137AAD-67DB-404B-848B-7CC122F9FA6F";
name = "Regular Jul 8 14, 13:32";
paths = (
{
closed = 1;
nodes = (
"123 627 LINE",
"123 0 LINE",
"203 0 LINE",
"203 627 LINE"
);
},
{
closed = 1;
nodes = (
"-20 660 LINE",
"-20 594 LINE",
"346 594 LINE",
"346 660 LINE"
);
}
);
width = 326;
}
);
unicode = 093E;
},
{
glyphname = zero;
lastChange = "2014-07-11 13:27:22 +0100";
layers = (
{
layerId = "90FEB760-6DE5-46E5-A8E9-582C63BAB3AD";
name = Regular;
paths = (
{
closed = 1;
nodes = (
"148 670 OFFCURVE",
"58 551 OFFCURVE",
"58 330 CURVE SMOOTH",
"58 109 OFFCURVE",
"148 -10 OFFCURVE",
"314 -10 CURVE SMOOTH",
"480 -10 OFFCURVE",
"570 109 OFFCURVE",
"570 330 CURVE SMOOTH",
"570 551 OFFCURVE",
"480 670 OFFCURVE",
"314 670 CURVE SMOOTH"
);
},
{
closed = 1;
nodes = (
"426 595 OFFCURVE",
"486 502 OFFCURVE",
"486 330 CURVE SMOOTH",
"486 158 OFFCURVE",
"426 65 OFFCURVE",
"314 65 CURVE SMOOTH",
"202 65 OFFCURVE",
"142 158 OFFCURVE",
"142 330 CURVE SMOOTH",
"142 502 OFFCURVE",
"202 595 OFFCURVE",
"314 595 CURVE SMOOTH"
);
}
);
width = 628;
}
);
unicode = 0030;
},
{
glyphname = one;
lastChange = "2014-07-11 13:27:22 +0100";
layers = (
{
layerId = "90FEB760-6DE5-46E5-A8E9-582C63BAB3AD";
name = Regular;
paths = (
{
closed = 1;
nodes = (
"206 660 LINE",
"196 506 LINE",
"196 0 LINE",
"276 0 LINE",
"276 506 LINE",
"276 660 LINE"
);
},
{
closed = 1;
nodes = (
"169 609 OFFCURVE",
"63 550 OFFCURVE",
"16 544 CURVE",
"16 463 LINE",
"110 472 OFFCURVE",
"216 555 OFFCURVE",
"251 634 CURVE",
"206 660 LINE"
);
}
);
width = 371;
}
);
unicode = 0031;
},
{
glyphname = two;
lastChange = "2014-07-11 13:27:22 +0100";
layers = (
{
layerId = "90FEB760-6DE5-46E5-A8E9-582C63BAB3AD";
name = Regular;
paths = (
{
closed = 1;
nodes = (
"139 670 OFFCURVE",
"60 593 OFFCURVE",
"32 482 CURVE",
"102 440 LINE",
"122 535 OFFCURVE",
"179 595 OFFCURVE",
"275 595 CURVE SMOOTH",
"361 595 OFFCURVE",
"415 541 OFFCURVE",
"415 463 CURVE SMOOTH",
"415 346 OFFCURVE",
"281 259 OFFCURVE",
"52 65 CURVE",
"98 23 LINE",
"340 212 OFFCURVE",
"499 306 OFFCURVE",
"499 463 CURVE SMOOTH",
"499 585 OFFCURVE",
"413 670 OFFCURVE",
"278 670 CURVE SMOOTH"
);
},
{
closed = 1;
nodes = (
"235 75 LINE",
"52 65 LINE",
"52 0 LINE",
"235 0 LINE",
"511 0 LINE",
"511 75 LINE"
);
}
);
width = 570;
}
);
unicode = 0032;
},
{
glyphname = three;
lastChange = "2014-07-11 13:27:22 +0100";
layers = (
{
layerId = "90FEB760-6DE5-46E5-A8E9-582C63BAB3AD";
name = Regular;
paths = (
{
closed = 1;
nodes = (
"207 334 LINE",
"207 295 LINE",
"233 295 LINE SMOOTH",
"334 295 OFFCURVE",
"384 268 OFFCURVE",
"385 180 CURVE SMOOTH",
"386 117 OFFCURVE",
"331 65 OFFCURVE",
"242 65 CURVE SMOOTH",
"144 65 OFFCURVE",
"107 112 OFFCURVE",
"86 181 CURVE",
"6 137 LINE",
"44 42 OFFCURVE",
"113 -10 OFFCURVE",
"236 -10 CURVE SMOOTH",
"377 -10 OFFCURVE",
"468 70 OFFCURVE",
"468 177 CURVE SMOOTH",
"468 253 OFFCURVE",
"426 334 OFFCURVE",
"321 334 CURVE SMOOTH"
);
},
{
closed = 1;
nodes = (
"139 670 OFFCURVE",
"54 617 OFFCURVE",
"24 513 CURVE",
"102 477 LINE",
"119 553 OFFCURVE",
"164 595 OFFCURVE",
"248 595 CURVE SMOOTH",
"327 595 OFFCURVE",
"371 556 OFFCURVE",
"370 479 CURVE SMOOTH",
"369 405 OFFCURVE",
"322 370 OFFCURVE",
"233 370 CURVE SMOOTH",
"207 370 LINE",
"207 334 LINE",
"321 334 LINE SMOOTH",
"404 334 OFFCURVE",
"453 413 OFFCURVE",
"453 498 CURVE SMOOTH",
"453 589 OFFCURVE",
"382 670 OFFCURVE",
"247 670 CURVE SMOOTH"
);
}
);
width = 516;
}
);
unicode = 0033;
},
{
glyphname = four;
lastChange = "2014-07-11 13:27:22 +0100";
layers = (
{
layerId = "90FEB760-6DE5-46E5-A8E9-582C63BAB3AD";
name = Regular;
paths = (
{
closed = 1;
nodes = (
"347 660 LINE",
"25 242 LINE",
"81 197 LINE",
"435 660 LINE"
);
},
{
closed = 1;
nodes = (
"25 242 LINE",
"25 173 LINE",
"568 173 LINE",
"568 242 LINE"
);
},
{
closed = 1;
nodes = (
"25 242 LINE",
"25 173 LINE",
"568 173 LINE",
"568 242 LINE"
);
},
{
closed = 1;
nodes = (
"371 660 LINE",
"371 0 LINE",
"451 0 LINE",
"451 660 LINE"
);
}
);
width = 590;
}
);
unicode = 0034;
},
{
glyphname = five;
lastChange = "2014-07-11 13:27:22 +0100";
layers = (
{
layerId = "90FEB760-6DE5-46E5-A8E9-582C63BAB3AD";
name = Regular;
paths = (
{
closed = 1;
nodes = (
"185 418 OFFCURVE",
"124 353 OFFCURVE",
"94 284 CURVE",
"142 284 LINE",
"170 325 OFFCURVE",
"225 343 OFFCURVE",
"289 342 CURVE SMOOTH",
"378 343 OFFCURVE",
"428 300 OFFCURVE",
"429 206 CURVE SMOOTH",
"430 118 OFFCURVE",
"374 65 OFFCURVE",
"283 65 CURVE SMOOTH",
"191 65 OFFCURVE",
"155 112 OFFCURVE",
"134 182 CURVE",
"50 137 LINE",
"88 42 OFFCURVE",
"163 -10 OFFCURVE",
"286 -10 CURVE SMOOTH",
"427 -10 OFFCURVE",
"512 73 OFFCURVE",
"512 210 CURVE SMOOTH",
"512 336 OFFCURVE",
"432 416 OFFCURVE",
"304 417 CURVE SMOOTH"
);
},
{
closed = 1;
nodes = (
"111 660 LINE",
"71 284 LINE",
"142 284 LINE",
"188 660 LINE"
);
},
{
closed = 1;
nodes = (
"150 660 LINE",
"141 585 LINE",
"482 585 LINE",
"482 660 LINE"
);
}
);
width = 560;
}
);
unicode = 0035;
},
{
glyphname = six;
lastChange = "2014-07-11 13:27:22 +0100";
layers = (
{
layerId = "90FEB760-6DE5-46E5-A8E9-582C63BAB3AD";
leftMetricsKey = zero;
name = Regular;
paths = (
{
closed = 1;
nodes = (
"148 670 OFFCURVE",
"58 551 OFFCURVE",
"58 330 CURVE SMOOTH",
"58 109 OFFCURVE",
"148 -10 OFFCURVE",
"314 -10 CURVE SMOOTH",
"453 -10 OFFCURVE",
"541 73 OFFCURVE",
"541 204 CURVE SMOOTH",
"541 335 OFFCURVE",
"453 418 OFFCURVE",
"314 418 CURVE SMOOTH",
"218 418 OFFCURVE",
"121 344 OFFCURVE",
"87 226 CURVE",
"133 194 LINE",
"170 286 OFFCURVE",
"234 343 OFFCURVE",
"314 343 CURVE SMOOTH",
"406 343 OFFCURVE",
"457 294 OFFCURVE",
"457 205 CURVE SMOOTH",
"457 115 OFFCURVE",
"406 66 OFFCURVE",
"314 67 CURVE SMOOTH",
"199 66 OFFCURVE",
"138 160 OFFCURVE",
"138 330 CURVE SMOOTH",
"138 502 OFFCURVE",
"204 595 OFFCURVE",
"309 595 CURVE SMOOTH",
"387 595 OFFCURVE",
"426 564 OFFCURVE",
"447 493 CURVE",
"526 531 LINE",
"497 625 OFFCURVE",
"427 670 OFFCURVE",
"314 670 CURVE SMOOTH"
);
}
);
width = 583;
}
);
leftMetricsKey = zero;
unicode = 0036;
},
{
glyphname = seven;
lastChange = "2014-07-11 13:27:22 +0100";
layers = (
{
layerId = "90FEB760-6DE5-46E5-A8E9-582C63BAB3AD";
name = Regular;
paths = (
{
closed = 1;
nodes = (
"275 428 OFFCURVE",
"189 188 OFFCURVE",
"189 0 CURVE",
"278 0 LINE",
"278 188 OFFCURVE",
"356 401 OFFCURVE",
"511 585 CURVE",
"458 626 LINE"
);
},
{
closed = 1;
nodes = (
"25 660 LINE",
"25 585 LINE",
"511 585 LINE",
"511 660 LINE"
);
}
);
width = 550;
}
);
unicode = 0037;
},
{
glyphname = eight;
lastChange = "2014-07-11 13:27:22 +0100";
layers = (
{
layerId = "90FEB760-6DE5-46E5-A8E9-582C63BAB3AD";
name = Regular;
paths = (
{
closed = 1;
nodes = (
"147 357 OFFCURVE",
"56 286 OFFCURVE",
"56 173 CURVE SMOOTH",
"56 61 OFFCURVE",
"147 -10 OFFCURVE",
"285 -10 CURVE SMOOTH",
"424 -10 OFFCURVE",
"515 61 OFFCURVE",
"515 173 CURVE SMOOTH",
"515 286 OFFCURVE",
"424 357 OFFCURVE",
"285 356 CURVE SMOOTH"
);
},
{
closed = 1;
nodes = (
"374 297 OFFCURVE",
"431 253 OFFCURVE",
"432 181 CURVE SMOOTH",
"433 109 OFFCURVE",
"376 65 OFFCURVE",
"285 65 CURVE SMOOTH",
"195 65 OFFCURVE",
"138 109 OFFCURVE",
"139 181 CURVE SMOOTH",
"140 253 OFFCURVE",
"197 297 OFFCURVE",
"285 297 CURVE SMOOTH"
);
},
{
closed = 1;
nodes = (
"363 595 OFFCURVE",
"413 553 OFFCURVE",
"412 483 CURVE SMOOTH",
"411 414 OFFCURVE",
"361 372 OFFCURVE",
"285 372 CURVE SMOOTH",
"209 372 OFFCURVE",
"159 414 OFFCURVE",
"158 483 CURVE SMOOTH",
"157 553 OFFCURVE",
"207 595 OFFCURVE",
"285 594 CURVE SMOOTH"
);
},
{
closed = 1;
nodes = (
"158 670 OFFCURVE",
"75 601 OFFCURVE",
"75 491 CURVE SMOOTH",
"75 382 OFFCURVE",
"158 313 OFFCURVE",
"285 313 CURVE SMOOTH",
"412 313 OFFCURVE",
"495 382 OFFCURVE",
"495 491 CURVE SMOOTH",
"495 601 OFFCURVE",
"412 670 OFFCURVE",
"285 669 CURVE SMOOTH"
);
}
);
width = 571;
}
);
unicode = 0038;
},
{
glyphname = nine;
lastChange = "2014-07-11 13:27:22 +0100";
layers = (
{
layerId = "90FEB760-6DE5-46E5-A8E9-582C63BAB3AD";
rightMetricsKey = zero;
name = Regular;
paths = (
{
closed = 1;
nodes = (
"145 670 OFFCURVE",
"57 587 OFFCURVE",
"57 456 CURVE SMOOTH",
"57 325 OFFCURVE",
"151 242 OFFCURVE",
"280 242 CURVE SMOOTH",
"398 242 OFFCURVE",
"492 320 OFFCURVE",
"505 444 CURVE",
"457 451 LINE",
"435 372 OFFCURVE",
"376 317 OFFCURVE",
"279 317 CURVE SMOOTH",
"192 317 OFFCURVE",
"141 366 OFFCURVE",
"141 455 CURVE SMOOTH",
"141 545 OFFCURVE",
"192 594 OFFCURVE",
"284 593 CURVE SMOOTH",
"399 594 OFFCURVE",
"460 500 OFFCURVE",
"460 330 CURVE SMOOTH",
"460 158 OFFCURVE",
"400 65 OFFCURVE",
"284 65 CURVE SMOOTH",
"186 65 OFFCURVE",
"156 112 OFFCURVE",
"135 181 CURVE",
"55 137 LINE",
"93 42 OFFCURVE",
"162 -10 OFFCURVE",
"285 -10 CURVE SMOOTH",
"451 -10 OFFCURVE",
"540 109 OFFCURVE",
"540 330 CURVE SMOOTH",
"540 551 OFFCURVE",
"450 670 OFFCURVE",
"284 670 CURVE SMOOTH"
);
}
);
width = 598;
}
);
rightMetricsKey = zero;
unicode = 0039;
},
{
color = 0;
glyphname = comma;
lastChange = "2014-07-11 13:47:36 +0100";
layers = (
{
background = {
components = (
{
name = period;
transform = "{1, 0, 0, 1, 0, 0}";
}
);
paths = (
{
closed = 1;
nodes = (
"116 125 LINE",
"47 -133 LINE",
"108 -149 LINE",
"215 98 LINE"
);
}
);
};
layerId = "90FEB760-6DE5-46E5-A8E9-582C63BAB3AD";
name = Regular;
paths = (
{
closed = 1;
nodes = (
"101 118 LINE",
"52 -129 LINE",
"110 -129 LINE",
"203 118 LINE"
);
}
);
width = 286;
},
{
associatedMasterId = "90FEB760-6DE5-46E5-A8E9-582C63BAB3AD";
layerId = "CB99ED9A-2C82-4A3F-81DA-2EE0E01BB33F";
name = "Regular Jul 2 14, 15:08";
paths = (
{
closed = 1;
nodes = (
"116 125 LINE",
"47 -133 LINE",
"108 -149 LINE",
"215 98 LINE"
);
}
);
width = 286;
}
);
unicode = 002C;
},
{
glyphname = exclam;
lastChange = "2014-07-11 13:47:36 +0100";
layers = (
{
layerId = "90FEB760-6DE5-46E5-A8E9-582C63BAB3AD";
name = Regular;
paths = (
{
closed = 1;
nodes = (
"103 660 LINE",
"103 208 LINE",
"183 208 LINE",
"183 660 LINE"
);
},
{
closed = 1;
nodes = (
"107 120 OFFCURVE",
"78 91 OFFCURVE",
"78 55 CURVE SMOOTH",
"78 19 OFFCURVE",
"107 -10 OFFCURVE",
"143 -10 CURVE SMOOTH",
"179 -10 OFFCURVE",
"208 19 OFFCURVE",
"208 55 CURVE SMOOTH",
"208 91 OFFCURVE",
"179 120 OFFCURVE",
"143 120 CURVE SMOOTH"
);
}
);
width = 286;
}
);
leftMetricsKey = period;
rightMetricsKey = period;
unicode = 0021;
},
{
glyphname = period;
lastChange = "2014-07-11 13:47:36 +0100";
layers = (
{
layerId = "90FEB760-6DE5-46E5-A8E9-582C63BAB3AD";
name = Regular;
paths = (
{
closed = 1;
nodes = (
"107 120 OFFCURVE",
"78 91 OFFCURVE",
"78 55 CURVE SMOOTH",
"78 19 OFFCURVE",
"107 -10 OFFCURVE",
"143 -10 CURVE SMOOTH",
"179 -10 OFFCURVE",
"208 19 OFFCURVE",
"208 55 CURVE SMOOTH",
"208 91 OFFCURVE",
"179 120 OFFCURVE",
"143 120 CURVE SMOOTH"
);
}
);
width = 286;
}
);
unicode = 002E;
},
{
glyphname = question;
lastChange = "2014-07-11 13:47:36 +0100";
layers = (
{
associatedMasterId = "90FEB760-6DE5-46E5-A8E9-582C63BAB3AD";
background = {
components = (
{
disableAlignment = 1;
name = two;
transform = "{1, 0, 0, 1, -11, 0}";
}
);
};
components = (
{
name = period;
transform = "{1, 0, 0, 1, 108, 0}";
}
);
layerId = "E61AC246-1577-4844-A35E-D56B4503EB7A";
name = "Regular Jul 2 14, 16:50";
paths = (
{
closed = 1;
nodes = (
"138 670 OFFCURVE",
"55 602 OFFCURVE",
"33 500 CURVE",
"104 459 LINE",
"118 543 OFFCURVE",
"168 595 OFFCURVE",
"263 595 CURVE SMOOTH",
"353 595 OFFCURVE",
"402 546 OFFCURVE",
"402 483 CURVE SMOOTH",
"402 377 OFFCURVE",
"257 364 OFFCURVE",
"210 192 CURVE",
"290 192 LINE",
"324 316 OFFCURVE",
"486 340 OFFCURVE",
"486 482 CURVE SMOOTH",
"486 601 OFFCURVE",
"396 670 OFFCURVE",
"264 670 CURVE SMOOTH"
);
}
);
width = 545;
},
{
associatedMasterId = "90FEB760-6DE5-46E5-A8E9-582C63BAB3AD";
background = {
components = (
{
disableAlignment = 1;
name = two;
transform = "{1, 0, 0, 1, -11, 0}";
}
);
};
components = (
{
name = period;
transform = "{1, 0, 0, 1, 108, 0}";
}
);
layerId = "A3D61E21-0F19-4ED4-8F3A-B8317C4202F3";
name = "Regular Jul 2 14, 16:58";
paths = (
{
closed = 1;
nodes = (
"138 670 OFFCURVE",
"55 602 OFFCURVE",
"33 500 CURVE",
"104 459 LINE",
"117 543 OFFCURVE",
"176 595 OFFCURVE",
"267 595 CURVE SMOOTH",
"362 595 OFFCURVE",
"402 556 OFFCURVE",
"402 501 CURVE SMOOTH",
"402 376 OFFCURVE",
"208 377 OFFCURVE",
"208 208 CURVE",
"291 208 LINE",
"291 331 OFFCURVE",
"486 348 OFFCURVE",
"486 500 CURVE SMOOTH",
"486 601 OFFCURVE",
"406 670 OFFCURVE",
"275 670 CURVE SMOOTH"
);
}
);
width = 545;
},
{
annotations = (
{
position = "{395, 315}";
text = "uneven?";
type = Text;
width = 50;
}
);
background = {
components = (
{
disableAlignment = 1;
name = two;
transform = "{1, 0, 0, 1, -11, 0}";
}
);
};
components = (
{
name = period;
transform = "{1, 0, 0, 1, 113, 0}";
}
);
layerId = "90FEB760-6DE5-46E5-A8E9-582C63BAB3AD";
name = Regular;
paths = (
{
closed = 1;
nodes = (
"141 670 OFFCURVE",
"55 602 OFFCURVE",
"33 500 CURVE",
"104 459 LINE",
"114 543 OFFCURVE",
"173 595 OFFCURVE",
"261 595 CURVE SMOOTH",
"356 595 OFFCURVE",
"402 553 OFFCURVE",
"402 490 CURVE SMOOTH",
"402 377 OFFCURVE",
"215 366 OFFCURVE",
"215 208 CURVE",
"298 208 LINE",
"298 326 OFFCURVE",
"486 328 OFFCURVE",
"486 500 CURVE SMOOTH",
"486 605 OFFCURVE",
"400 670 OFFCURVE",
"267 670 CURVE SMOOTH"
);
}
);
width = 545;
}
);
unicode = 003F;
},
{
color = 0;
glyphname = quotesingle;
lastChange = "2014-07-11 13:47:36 +0100";
layers = (
{
layerId = "90FEB760-6DE5-46E5-A8E9-582C63BAB3AD";
name = Regular;
paths = (
{
closed = 1;
nodes = (
"77 730 LINE",
"77 483 LINE",
"152 483 LINE",
"152 730 LINE"
);
}
);
width = 229;
}
);
unicode = 0027;
},
{
color = 0;
glyphname = semicolon;
lastChange = "2014-07-11 13:47:36 +0100";
layers = (
{
background = {
paths = (
{
closed = 1;
nodes = (
"95 150 LINE",
"95 -150 LINE",
"191 -150 LINE",
"191 150 LINE"
);
},
{
closed = 1;
nodes = (
"181 -10 OFFCURVE",
"211 20 OFFCURVE",
"211 58 CURVE SMOOTH",
"211 95 OFFCURVE",
"181 125 OFFCURVE",
"143 125 CURVE SMOOTH",
"105 125 OFFCURVE",
"75 95 OFFCURVE",
"75 58 CURVE SMOOTH",
"75 20 OFFCURVE",
"105 -10 OFFCURVE",
"143 -10 CURVE SMOOTH"
);
}
);
};
components = (
{
name = comma;
transform = "{1, 0, 0, 1, 0, 0}";
},
{
name = period;
transform = "{-1, -0, 0, -1, 286, 490}";
}
);
layerId = "90FEB760-6DE5-46E5-A8E9-582C63BAB3AD";
name = Regular;
width = 286;
}
);
unicode = 003B;
},
{
glyphname = slash;
lastChange = "2014-07-11 13:47:36 +0100";
layers = (
{
background = {
paths = (
{
closed = 1;
nodes = (
"399 730 LINE",
"324 730 LINE",
"2 -112 LINE",
"77 -112 LINE"
);
}
);
};
layerId = "90FEB760-6DE5-46E5-A8E9-582C63BAB3AD";
name = Regular;
paths = (
{
closed = 1;
nodes = (
"399 730 LINE",
"324 730 LINE",
"18 -70 LINE",
"93 -70 LINE"
);
}
);
width = 417;
}
);
unicode = 002F;
},
{
glyphname = underscore;
lastChange = "2014-07-11 13:47:36 +0100";
layers = (
{
layerId = "90FEB760-6DE5-46E5-A8E9-582C63BAB3AD";
name = Regular;
paths = (
{
closed = 1;
nodes = (
"0 -97 LINE",
"0 -172 LINE",
"539 -172 LINE",
"539 -97 LINE"
);
}
);
width = 539;
}
);
unicode = 005F;
},
{
glyphname = bracketleft;
lastChange = "2014-07-11 13:47:36 +0100";
layers = (
{
layerId = "90FEB760-6DE5-46E5-A8E9-582C63BAB3AD";
name = Regular;
paths = (
{
closed = 1;
nodes = (
"157 730 LINE",
"157 665 LINE",
"343 665 LINE",
"343 730 LINE"
);
},
{
closed = 1;
nodes = (
"190 730 LINE",
"120 730 LINE",
"120 -168 LINE",
"190 -168 LINE"
);
},
{
closed = 1;
nodes = (
"343 -103 LINE",
"157 -103 LINE",
"157 -168 LINE",
"343 -168 LINE"
);
}
);
width = 408;
}
);
unicode = 005B;
},
{
glyphname = parenleft;
lastChange = "2014-07-11 13:47:36 +0100";
layers = (
{
background = {
paths = (
{
closed = 1;
nodes = (
"79 93 OFFCURVE",
"152 -57 OFFCURVE",
"273 -168 CURVE",
"356 -168 LINE",
"221 -46 OFFCURVE",
"161 92 OFFCURVE",
"161 281 CURVE SMOOTH",
"161 470 OFFCURVE",
"221 608 OFFCURVE",
"356 730 CURVE",
"273 730 LINE",
"152 629 OFFCURVE",
"79 469 OFFCURVE",
"79 281 CURVE SMOOTH"
);
}
);
};
layerId = "90FEB760-6DE5-46E5-A8E9-582C63BAB3AD";
name = Regular;
paths = (
{
closed = 1;
nodes = (
"79 93 OFFCURVE",
"152 -67 OFFCURVE",
"293 -189 CURVE",
"337 -146 LINE",
"210 -30 OFFCURVE",
"161 96 OFFCURVE",
"161 281 CURVE SMOOTH",
"161 466 OFFCURVE",
"210 592 OFFCURVE",
"337 708 CURVE",
"293 751 LINE",
"152 629 OFFCURVE",
"79 469 OFFCURVE",
"79 281 CURVE SMOOTH"
);
}
);
width = 411;
},
{
associatedMasterId = "90FEB760-6DE5-46E5-A8E9-582C63BAB3AD";
background = {
paths = (
{
closed = 1;
nodes = (
"162 730 LINE",
"162 665 LINE",
"348 665 LINE",
"348 730 LINE"
);
},
{
closed = 1;
nodes = (
"195 730 LINE",
"125 730 LINE",
"125 -168 LINE",
"195 -168 LINE"
);
},
{
closed = 1;
nodes = (
"348 -103 LINE",
"162 -103 LINE",
"162 -168 LINE",
"348 -168 LINE"
);
},
{
closed = 1;
nodes = (
"285 -88 OFFCURVE",
"199 70 OFFCURVE",
"199 281 CURVE",
"199 492 OFFCURVE",
"285 650 OFFCURVE",
"367 695 CURVE",
"329 765 LINE",
"219 706 OFFCURVE",
"119 520 OFFCURVE",
"119 281 CURVE",
"119 42 OFFCURVE",
"219 -144 OFFCURVE",
"329 -203 CURVE",
"367 -133 LINE"
);
}
);
};
layerId = "6EF4F2CC-2F55-4964-AE7D-9A0B47E07260";
name = "Regular Jul 6 14, 20:07";
paths = (
{
closed = 1;
nodes = (
"79 93 OFFCURVE",
"152 -57 OFFCURVE",
"273 -168 CURVE",
"356 -168 LINE",
"221 -46 OFFCURVE",
"161 92 OFFCURVE",
"161 281 CURVE SMOOTH",
"161 470 OFFCURVE",
"221 608 OFFCURVE",
"356 730 CURVE",
"273 730 LINE",
"152 629 OFFCURVE",
"79 469 OFFCURVE",
"79 281 CURVE SMOOTH"
);
}
);
width = 411;
}
);
unicode = 0028;
},
{
glyphname = emdash;
lastChange = "2014-07-11 13:47:36 +0100";
layers = (
{
layerId = "90FEB760-6DE5-46E5-A8E9-582C63BAB3AD";
name = Regular;
paths = (
{
closed = 1;
nodes = (
"75 224 LINE",
"925 224 LINE",
"925 299 LINE",
"75 299 LINE"
);
}
);
width = 1000;
}
);
unicode = 2014;
},
{
glyphname = endash;
lastChange = "2014-07-11 13:47:36 +0100";
layers = (
{
layerId = "90FEB760-6DE5-46E5-A8E9-582C63BAB3AD";
name = Regular;
paths = (
{
closed = 1;
nodes = (
"25 224 LINE",
"525 224 LINE",
"525 299 LINE",
"25 299 LINE"
);
}
);
width = 550;
}
);
unicode = 2013;
},
{
glyphname = hyphen;
lastChange = "2014-07-11 13:47:36 +0100";
layers = (
{
layerId = "90FEB760-6DE5-46E5-A8E9-582C63BAB3AD";
name = Regular;
paths = (
{
closed = 1;
nodes = (
"75 220 LINE",
"405 220 LINE",
"405 303 LINE",
"75 303 LINE"
);
}
);
width = 480;
}
);
leftMetricsKey = emdash;
rightMetricsKey = emdash;
unicode = 002D;
},
{
color = 0;
glyphname = guilsinglleft;
lastChange = "2014-07-11 13:47:36 +0100";
layers = (
{
background = {
paths = (
{
closed = 1;
nodes = (
"62 234 LINE",
"276 30 LINE",
"321 74 LINE",
"146 250 LINE",
"321 426 LINE",
"276 470 LINE",
"62 266 LINE"
);
}
);
};
layerId = "90FEB760-6DE5-46E5-A8E9-582C63BAB3AD";
name = Regular;
paths = (
{
closed = 1;
nodes = (
"319 28 LINE",
"319 118 LINE",
"156 250 LINE",
"319 386 LINE",
"319 472 LINE",
"62 276 LINE",
"62 224 LINE"
);
}
);
width = 389;
},
{
associatedMasterId = "90FEB760-6DE5-46E5-A8E9-582C63BAB3AD";
layerId = "00D32FCE-B902-48CC-B31B-37C084BA0779";
name = "L flat R vert";
paths = (
{
closed = 1;
nodes = (
"100 200 LINE",
"312 376 LINE",
"312 483 LINE",
"100 308 LINE"
);
},
{
closed = 1;
nodes = (
"312 25 LINE",
"312 132 LINE",
"100 308 LINE",
"100 200 LINE"
);
}
);
width = 412;
},
{
associatedMasterId = "90FEB760-6DE5-46E5-A8E9-582C63BAB3AD";
background = {
paths = (
{
closed = 1;
nodes = (
"142 197 LINE",
"362 445 LINE",
"300 500 LINE",
"80 252 LINE"
);
}
);
};
layerId = "A97092AA-2C61-4AA9-9644-4D226D2DCA5E";
name = "L sharp R hori";
paths = (
{
closed = 1;
nodes = (
"148 250 LINE",
"343 471 LINE",
"246 471 LINE",
"50 250 LINE",
"246 29 LINE",
"343 29 LINE"
);
}
);
width = 403;
},
{
associatedMasterId = "90FEB760-6DE5-46E5-A8E9-582C63BAB3AD";
background = {
paths = (
{
closed = 1;
nodes = (
"142 197 LINE",
"362 445 LINE",
"300 500 LINE",
"80 252 LINE"
);
}
);
};
layerId = "5DB74B03-CEAE-4CB9-914E-53858E766983";
name = "L sharp R hori small";
paths = (
{
closed = 1;
nodes = (
"148 250 LINE",
"333 451 LINE",
"246 451 LINE",
"50 250 LINE",
"246 49 LINE",
"333 49 LINE"
);
}
);
width = 403;
},
{
associatedMasterId = "90FEB760-6DE5-46E5-A8E9-582C63BAB3AD";
background = {
paths = (
{
closed = 1;
nodes = (
"142 197 LINE",
"362 445 LINE",
"300 500 LINE",
"80 252 LINE"
);
}
);
};
layerId = "9E5C8650-F474-4089-BA8D-7922025B33C6";
name = "L ~sharp/flat R perpend";
paths = (
{
closed = 1;
nodes = (
"64 234 LINE",
"278 30 LINE",
"323 74 LINE",
"148 250 LINE",
"323 426 LINE",
"278 470 LINE",
"64 266 LINE"
);
}
);
width = 393;
},
{
associatedMasterId = "90FEB760-6DE5-46E5-A8E9-582C63BAB3AD";
background = {
paths = (
{
closed = 1;
nodes = (
"64 234 LINE",
"278 30 LINE",
"323 74 LINE",
"148 250 LINE",
"323 426 LINE",
"278 470 LINE",
"64 266 LINE"
);
}
);
};
layerId = "F060F112-6D07-43FB-B6D1-BCF7ECEA6912";
name = "L ~sharp/flat R vert";
paths = (
{
closed = 1;
nodes = (
"278 18 LINE",
"278 118 LINE",
"148 250 LINE",
"278 386 LINE",
"278 482 LINE",
"64 266 LINE",
"64 234 LINE"
);
}
);
width = 343;
}
);
unicode = 2039;
},
{
glyphname = breve;
lastChange = "2014-07-11 13:27:22 +0100";
layers = (
{
anchors = (
{
name = _top;
position = "{250, 500}";
}
);
layerId = "90FEB760-6DE5-46E5-A8E9-582C63BAB3AD";
name = Regular;
paths = (
{
closed = 1;
nodes = (
"341 738 LINE",
"341 679 OFFCURVE",
"303 636 OFFCURVE",
"250 636 CURVE SMOOTH",
"197 636 OFFCURVE",
"159 679 OFFCURVE",
"159 738 CURVE",
"92 738 LINE",
"92 644 OFFCURVE",
"156 580 OFFCURVE",
"250 580 CURVE SMOOTH",
"344 580 OFFCURVE",
"408 644 OFFCURVE",
"408 738 CURVE"
);
}
);
width = 500;
}
);
unicode = 02D8;
},
{
glyphname = caron;
lastChange = "2014-07-11 13:27:22 +0100";
layers = (
{
anchors = (
{
name = _top;
position = "{250, 500}";
}
);
layerId = "90FEB760-6DE5-46E5-A8E9-582C63BAB3AD";
name = Regular;
paths = (
{
closed = 1;
nodes = (
"336 750 LINE",
"250 635 LINE",
"164 750 LINE",
"91 750 LINE",
"205 583 LINE",
"295 583 LINE",
"409 750 LINE"
);
}
);
width = 500;
}
);
unicode = 02C7;
},
{
glyphname = dotaccent;
lastChange = "2014-07-11 13:27:22 +0100";
layers = (
{
anchors = (
{
name = _top;
position = "{250, 500}";
}
);
layerId = "90FEB760-6DE5-46E5-A8E9-582C63BAB3AD";
name = Regular;
paths = (
{
closed = 1;
nodes = (
"217 716 OFFCURVE",
"190 689 OFFCURVE",
"190 656 CURVE SMOOTH",
"190 623 OFFCURVE",
"217 596 OFFCURVE",
"250 596 CURVE SMOOTH",
"283 596 OFFCURVE",
"310 623 OFFCURVE",
"310 656 CURVE SMOOTH",
"310 689 OFFCURVE",
"283 716 OFFCURVE",
"250 716 CURVE SMOOTH"
);
}
);
width = 500;
}
);
unicode = 02D9;
},
{
glyphname = grave;
lastChange = "2014-07-11 13:27:22 +0100";
layers = (
{
anchors = (
{
name = _top;
position = "{250, 500}";
}
);
layerId = "90FEB760-6DE5-46E5-A8E9-582C63BAB3AD";
name = Regular;
paths = (
{
closed = 1;
nodes = (
"130 750 LINE",
"230 583 LINE",
"290 583 LINE",
"218 750 LINE"
);
}
);
width = 500;
}
);
unicode = 0060;
},
{
glyphname = hungarumlaut;
lastChange = "2014-07-11 13:27:22 +0100";
layers = (
{
anchors = (
{
name = _top;
position = "{223, 500}";
}
);
layerId = "90FEB760-6DE5-46E5-A8E9-582C63BAB3AD";
name = Regular;
paths = (
{
closed = 1;
nodes = (
"327 750 LINE",
"255 583 LINE",
"309 583 LINE",
"409 750 LINE"
);
},
{
closed = 1;
nodes = (
"183 750 LINE",
"111 583 LINE",
"165 583 LINE",
"265 750 LINE"
);
}
);
width = 500;
}
);
unicode = 02DD;
},
{
glyphname = macron;
lastChange = "2014-07-11 13:27:22 +0100";
layers = (
{
anchors = (
{
name = _top;
position = "{250, 500}";
},
{
name = ogonek;
position = "{500, 10}";
}
);
layerId = "90FEB760-6DE5-46E5-A8E9-582C63BAB3AD";
name = Regular;
paths = (
{
closed = 1;
nodes = (
"76 674 LINE",
"76 607 LINE",
"424 607 LINE",
"424 674 LINE"
);
}
);
width = 500;
}
);
unicode = 00AF;
},
{
glyphname = ring;
lastChange = "2014-07-11 13:27:22 +0100";
layers = (
{
layerId = "90FEB760-6DE5-46E5-A8E9-582C63BAB3AD";
name = Regular;
paths = (
{
closed = 1;
nodes = (
"196 775 OFFCURVE",
"152 731 OFFCURVE",
"152 678 CURVE SMOOTH",
"152 624 OFFCURVE",
"196 580 OFFCURVE",
"250 580 CURVE SMOOTH",
"304 580 OFFCURVE",
"347 624 OFFCURVE",
"347 678 CURVE SMOOTH",
"347 731 OFFCURVE",
"304 775 OFFCURVE",
"250 775 CURVE SMOOTH"
);
}
);
width = 500;
}
);
unicode = 02DA;
},
{
glyphname = tilde;
lastChange = "2014-07-11 13:27:22 +0100";
layers = (
{
anchors = (
{
name = _top;
position = "{249, 500}";
}
);
layerId = "90FEB760-6DE5-46E5-A8E9-582C63BAB3AD";
name = Regular;
paths = (
{
closed = 1;
nodes = (
"410 647 OFFCURVE",
"369 608 OFFCURVE",
"319 608 CURVE SMOOTH",
"294 608 OFFCURVE",
"274 615 OFFCURVE",
"248 630 CURVE SMOOTH",
"215 649 OFFCURVE",
"205 656 OFFCURVE",
"187 656 CURVE SMOOTH",
"166 656 OFFCURVE",
"149 639 OFFCURVE",
"145 608 CURVE",
"84 608 LINE",
"88 668 OFFCURVE",
"118 722 OFFCURVE",
"182 722 CURVE SMOOTH",
"208 722 OFFCURVE",
"227 714 OFFCURVE",
"254 698 CURVE SMOOTH",
"284 680 OFFCURVE",
"296 674 OFFCURVE",
"310 674 CURVE SMOOTH",
"335 674 OFFCURVE",
"349 689 OFFCURVE",
"354 722 CURVE",
"415 722 LINE"
);
},
{
closed = 1;
nodes = (
"410 647 OFFCURVE",
"369 608 OFFCURVE",
"319 608 CURVE SMOOTH",
"294 608 OFFCURVE",
"274 615 OFFCURVE",
"248 630 CURVE SMOOTH",
"215 649 OFFCURVE",
"205 656 OFFCURVE",
"187 656 CURVE SMOOTH",
"166 656 OFFCURVE",
"149 639 OFFCURVE",
"145 608 CURVE",
"84 608 LINE",
"88 668 OFFCURVE",
"118 722 OFFCURVE",
"182 722 CURVE SMOOTH",
"208 722 OFFCURVE",
"227 714 OFFCURVE",
"254 698 CURVE SMOOTH",
"284 680 OFFCURVE",
"296 674 OFFCURVE",
"310 674 CURVE SMOOTH",
"335 674 OFFCURVE",
"349 689 OFFCURVE",
"354 722 CURVE",
"415 722 LINE"
);
}
);
width = 500;
}
);
unicode = 02DC;
},
{
export = 0;
glyphname = bowl;
lastChange = "2014-07-11 13:27:22 +0100";
layers = (
{
layerId = "90FEB760-6DE5-46E5-A8E9-582C63BAB3AD";
name = Regular;
paths = (
{
closed = 1;
nodes = (
"175 510 OFFCURVE",
"88 413 OFFCURVE",
"88 250 CURVE SMOOTH",
"88 87 OFFCURVE",
"175 -10 OFFCURVE",
"320 -10 CURVE SMOOTH",
"436 -10 OFFCURVE",
"497 68 OFFCURVE",
"504 163 CURVE",
"474 187 LINE",
"448 115 OFFCURVE",
"406 60 OFFCURVE",
"317 60 CURVE SMOOTH",
"228 60 OFFCURVE",
"171 134 OFFCURVE",
"171 250 CURVE SMOOTH",
"171 366 OFFCURVE",
"228 440 OFFCURVE",
"317 440 CURVE SMOOTH",
"406 440 OFFCURVE",
"448 385 OFFCURVE",
"474 313 CURVE",
"504 337 LINE",
"497 432 OFFCURVE",
"436 510 OFFCURVE",
"320 510 CURVE SMOOTH"
);
}
);
width = 610;
}
);
},
{
glyphname = ausign_ra_virama_anusvara;
lastChange = "2014-07-11 13:27:29 +0100";
layers = (
{
layerId = "90FEB760-6DE5-46E5-A8E9-582C63BAB3AD";
name = Regular;
paths = (
{
closed = 1;
nodes = (
"-20 660 LINE",
"-20 594 LINE",
"335 594 LINE",
"335 660 LINE"
);
},
{
closed = 1;
nodes = (
"-57 934 OFFCURVE",
"-23 921 OFFCURVE",
"22 844 CURVE SMOOTH",
"149 628 LINE",
"203 628 LINE",
"78 874 LINE SMOOTH",
"26 979 OFFCURVE",
"-15 1004 OFFCURVE",
"-133 1004 CURVE SMOOTH",
"-198 1004 LINE",
"-198 934 LINE",
"-110 934 LINE SMOOTH"
);
},
{
closed = 1;
nodes = (
"123 627 LINE",
"123 0 LINE",
"203 0 LINE",
"203 627 LINE"
);
},
{
closed = 1;
nodes = (
"-107 788 OFFCURVE",
"-74 778 OFFCURVE",
"33 696 CURVE SMOOTH",
"123 627 LINE",
"203 627 LINE",
"89 718 LINE SMOOTH",
"-63 840 OFFCURVE",
"-105 858 OFFCURVE",
"-192 858 CURVE SMOOTH",
"-257 858 LINE",
"-257 788 LINE",
"-179 788 LINE SMOOTH"
);
},
{
closed = 1;
nodes = (
"205 1019 OFFCURVE",
"34 895 OFFCURVE",
"108 754 CURVE SMOOTH",
"175 627 LINE",
"203 627 LINE",
"151 732 LINE SMOOTH",
"79 877 OFFCURVE",
"237 916 OFFCURVE",
"338 873 CURVE",
"329 952 LINE"
);
},
{
closed = 1;
nodes = (
"233 823 OFFCURVE",
"210 801 OFFCURVE",
"210 773 CURVE SMOOTH",
"210 745 OFFCURVE",
"233 723 OFFCURVE",
"260 723 CURVE SMOOTH",
"288 723 OFFCURVE",
"310 745 OFFCURVE",
"310 773 CURVE SMOOTH",
"310 801 OFFCURVE",
"288 823 OFFCURVE",
"260 823 CURVE SMOOTH"
);
}
);
width = 315;
}
);
userData = {
com.typemytype.robofont.layerData = {
};
};
},
{
glyphname = ausign_ra_virama_anusvara.001;
layers = (
{
layerId = "90FEB760-6DE5-46E5-A8E9-582C63BAB3AD";
name = Regular;
paths = (
{
closed = 1;
nodes = (
"123 627 LINE",
"123 0 LINE",
"203 0 LINE",
"203 627 LINE"
);
},
{
closed = 1;
nodes = (
"-20 660 LINE",
"-20 594 LINE",
"335 594 LINE",
"335 660 LINE"
);
},
{
closed = 1;
nodes = (
"205 1013 OFFCURVE",
"53 927 OFFCURVE",
"139 764 CURVE SMOOTH",
"206 637 LINE",
"224 637 LINE",
"174 742 LINE SMOOTH",
"105 888 OFFCURVE",
"237 916 OFFCURVE",
"338 873 CURVE",
"329 946 LINE"
);
},
{
closed = 1;
nodes = (
"135 606 LINE",
"161 642 LINE",
"-189 925 LINE",
"-240 851 LINE"
);
},
{
closed = 1;
nodes = (
"187 612 LINE",
"224 637 LINE",
"8 1001 LINE",
"-60 946 LINE"
);
},
{
closed = 1;
nodes = (
"253 822 OFFCURVE",
"230 800 OFFCURVE",
"230 772 CURVE SMOOTH",
"230 744 OFFCURVE",
"253 722 OFFCURVE",
"280 722 CURVE SMOOTH",
"308 722 OFFCURVE",
"330 744 OFFCURVE",
"330 772 CURVE SMOOTH",
"330 800 OFFCURVE",
"308 822 OFFCURVE",
"280 822 CURVE SMOOTH"
);
}
